<?xml version="1.0" encoding="UTF-8"?>
<!DOCTYPE svg PUBLIC "-//W3C//DTD SVG 1.1//EN" "http://www.w3.org/Graphics/SVG/1.1/DTD/svg11.dtd">
<svg xmlns="http://www.w3.org/2000/svg" version="1.1" width="100px" height="100px" style="shape-rendering:geometricPrecision; text-rendering:geometricPrecision; image-rendering:optimizeQuality; fill-rule:evenodd; clip-rule:evenodd" xmlns:xlink="http://www.w3.org/1999/xlink">
<g><path style="opacity:1" fill="#3b6ef7" d="M 88.5,30.5 C 88.5858,31.4959 88.2524,32.3292 87.5,33C 78.324,33.1703 69.324,33.6703 60.5,34.5C 53.1021,30.5495 45.7687,30.5495 38.5,34.5C 29.6822,33.5067 20.6822,33.1734 11.5,33.5C 11.5,31.8333 11.5,30.1667 11.5,28.5C 14.9756,22.221 18.4756,15.8876 22,9.5C 23.214,7.95118 24.714,6.78451 26.5,6C 41.8333,5.33333 57.1667,5.33333 72.5,6C 74.286,6.78451 75.786,7.95118 77,9.5C 81.3659,16.2336 85.1992,23.2336 88.5,30.5 Z"/></g>
<g><path style="opacity:1" fill="#eef1fc" d="M 60.5,34.5 C 63.2441,36.9837 65.2441,39.9837 66.5,43.5C 68.2313,49.4744 67.2313,54.9744 63.5,60C 65.6667,62.1667 67.8333,64.3333 70,66.5C 70.3087,68.3914 69.4753,69.7248 67.5,70.5C 65.5,67.8333 63.1667,65.5 60.5,63.5C 54.843,66.2219 48.843,67.2219 42.5,66.5C 38.4564,63.4575 35.1231,59.7908 32.5,55.5C 30.4477,47.3255 32.4477,40.3255 38.5,34.5C 45.7687,30.5495 53.1021,30.5495 60.5,34.5 Z"/></g>
<g><path style="opacity:1" fill="#3a6df0" d="M 11.5,28.5 C 11.5,30.1667 11.5,31.8333 11.5,33.5C 20.6822,33.1734 29.6822,33.5067 38.5,34.5C 32.4477,40.3255 30.4477,47.3255 32.5,55.5C 32.6309,56.3764 32.2975,57.0431 31.5,57.5C 29.6183,56.9067 27.7849,56.2401 26,55.5C 19.2896,56.4648 12.6229,56.4648 6,55.5C 6.13494,57.4247 6.3016,59.4247 6.5,61.5C 3.97704,57.7874 1.97704,53.7874 0.5,49.5C 3.391,42.0497 7.05766,35.0497 11.5,28.5 Z"/></g>
<g><path style="opacity:1" fill="#3a6df0" d="M 88.5,30.5 C 92.6637,36.3481 95.997,42.6814 98.5,49.5C 96.2749,55.6188 93.2749,61.2855 89.5,66.5C 89.6495,65.448 89.4828,64.448 89,63.5C 82,56.5 75,49.5 68,42.5C 67.6174,43.056 67.1174,43.3893 66.5,43.5C 65.2441,39.9837 63.2441,36.9837 60.5,34.5C 69.324,33.6703 78.324,33.1703 87.5,33C 88.2524,32.3292 88.5858,31.4959 88.5,30.5 Z"/></g>
<g><path style="opacity:1" fill="#3262dc" d="M 44.5,36.5 C 57.4895,34.9907 63.3228,40.6574 62,53.5C 58.4854,60.9032 52.652,63.7366 44.5,62C 37.7639,58.024 35.2639,52.1906 37,44.5C 39.0282,41.3078 41.5282,38.6411 44.5,36.5 Z"/></g>
<g><path style="opacity:1" fill="#e3e7f8" d="M 40.5,48.5 C 41.8333,48.5 43.1667,48.5 44.5,48.5C 44.6646,51.5184 44.498,54.5184 44,57.5C 40.9553,55.2807 39.7886,52.2807 40.5,48.5 Z"/></g>
<g><path style="opacity:1" fill="#d9dff6" d="M 54.5,50.5 C 55.8333,50.5 57.1667,50.5 58.5,50.5C 58.9077,53.5993 57.741,55.9326 55,57.5C 54.5034,55.1902 54.3367,52.8568 54.5,50.5 Z"/></g>
<g><path style="opacity:1" fill="#396ce8" d="M 32.5,55.5 C 35.1231,59.7908 38.4564,63.4575 42.5,66.5C 50.8333,75.1667 59.1667,83.8333 67.5,92.5C 53.496,92.6666 39.496,92.4999 25.5,92C 18.2934,82.4294 11.9601,72.2627 6.5,61.5C 6.3016,59.4247 6.13494,57.4247 6,55.5C 12.6229,56.4648 19.2896,56.4648 26,55.5C 27.7849,56.2401 29.6183,56.9067 31.5,57.5C 32.2975,57.0431 32.6309,56.3764 32.5,55.5 Z"/></g>
<g><path style="opacity:1" fill="#bbc5ef" d="M 47.5,43.5 C 48.8333,43.5 50.1667,43.5 51.5,43.5C 51.5,48.8333 51.5,54.1667 51.5,59.5C 50.1667,59.5 48.8333,59.5 47.5,59.5C 47.5,54.1667 47.5,48.8333 47.5,43.5 Z"/></g>
<g><path style="opacity:1" fill="#fefffe" d="M 48.5,44.5 C 49.8048,46.3972 50.4714,48.7305 50.5,51.5C 50.1667,53.8333 49.8333,56.1667 49.5,58.5C 48.5067,53.8804 48.1734,49.2137 48.5,44.5 Z"/></g>
<g><path style="opacity:1" fill="#3764d7" d="M 89.5,66.5 C 85.591,74.2591 81.4244,81.9257 77,89.5C 74.1361,92.1639 70.9694,93.1639 67.5,92.5C 59.1667,83.8333 50.8333,75.1667 42.5,66.5C 48.843,67.2219 54.843,66.2219 60.5,63.5C 63.1667,65.5 65.5,67.8333 67.5,70.5C 69.4753,69.7248 70.3087,68.3914 70,66.5C 67.8333,64.3333 65.6667,62.1667 63.5,60C 67.2313,54.9744 68.2313,49.4744 66.5,43.5C 67.1174,43.3893 67.6174,43.056 68,42.5C 75,49.5 82,56.5 89,63.5C 89.4828,64.448 89.6495,65.448 89.5,66.5 Z"/></g>
</svg>
