<?xml version="1.0" encoding="UTF-8"?>
<!DOCTYPE svg PUBLIC "-//W3C//DTD SVG 1.1//EN" "http://www.w3.org/Graphics/SVG/1.1/DTD/svg11.dtd">
<svg xmlns="http://www.w3.org/2000/svg" version="1.1" width="100px" height="100px" style="shape-rendering:geometricPrecision; text-rendering:geometricPrecision; image-rendering:optimizeQuality; fill-rule:evenodd; clip-rule:evenodd" xmlns:xlink="http://www.w3.org/1999/xlink">
<g><path style="opacity:1" fill="#f69e24" d="M 29.5,40.5 C 28.6492,36.465 26.9826,32.7983 24.5,29.5C 30.4099,19.2983 37.9099,17.965 47,25.5C 47.0897,30.2336 45.7563,34.5669 43,38.5C 37.7117,33.0851 33.2117,33.7518 29.5,40.5 Z"/></g>
<g><path style="opacity:1" fill="#f69d20" d="M 74.5,29.5 C 73.0787,32.0094 71.4121,34.3428 69.5,36.5C 67.8583,34.9192 65.8583,34.2525 63.5,34.5C 58.6951,35.1323 55.5284,37.799 54,42.5C 53.1009,48.6471 53.6009,54.6471 55.5,60.5C 53.7349,63.7089 51.7349,66.7089 49.5,69.5C 45.6648,63.493 43.9981,56.8263 44.5,49.5C 43.8022,39.0872 47.1355,30.2538 54.5,23C 63.3281,18.583 69.9948,20.7497 74.5,29.5 Z"/></g>
<g><path style="opacity:1" fill="#e26220" d="M 74.5,29.5 C 76.1172,31.1209 77.2838,33.1209 78,35.5C 81.5531,46.7464 80.8864,57.7464 76,68.5C 71.1625,78.0005 63.9958,80.5005 54.5,76C 52.2101,74.2228 50.5434,72.0562 49.5,69.5C 51.7349,66.7089 53.7349,63.7089 55.5,60.5C 59.6776,65.7279 63.8443,65.7279 68,60.5C 71.784,54.0494 72.284,47.3827 69.5,40.5C 69.5,39.1667 69.5,37.8333 69.5,36.5C 71.4121,34.3428 73.0787,32.0094 74.5,29.5 Z"/></g>
<g><path style="opacity:1" fill="#e36524" d="M 24.5,29.5 C 26.9826,32.7983 28.6492,36.465 29.5,40.5C 28.9413,43.5164 28.2746,46.5164 27.5,49.5C 28.2746,52.4836 28.9413,55.4836 29.5,58.5C 28.6492,62.535 26.9826,66.2017 24.5,69.5C 18.2506,58.819 17.084,47.4857 21,35.5C 21.7162,33.1209 22.8828,31.1209 24.5,29.5 Z"/></g>
<g><path style="opacity:1" fill="#faad58" d="M 63.5,34.5 C 65.8583,34.2525 67.8583,34.9192 69.5,36.5C 69.5,37.8333 69.5,39.1667 69.5,40.5C 67.8333,38.1667 65.8333,36.1667 63.5,34.5 Z"/></g>
<g><path style="opacity:1" fill="#f69e23" d="M 29.5,58.5 C 33.2117,65.2482 37.7117,65.9149 43,60.5C 51.0427,72.453 47.8761,78.2863 33.5,78C 29.3209,76.3186 26.3209,73.4853 24.5,69.5C 26.9826,66.2017 28.6492,62.535 29.5,58.5 Z"/></g>
</svg>
