<?xml version="1.0" encoding="UTF-8"?>
<!DOCTYPE svg PUBLIC "-//W3C//DTD SVG 1.1//EN" "http://www.w3.org/Graphics/SVG/1.1/DTD/svg11.dtd">
<svg xmlns="http://www.w3.org/2000/svg" version="1.1" width="100px" height="100px" style="shape-rendering:geometricPrecision; text-rendering:geometricPrecision; image-rendering:optimizeQuality; fill-rule:evenodd; clip-rule:evenodd" xmlns:xlink="http://www.w3.org/1999/xlink">
<g><path style="opacity:0.008" fill="#3765a9" d="M 10.5,2.5 C 36.5085,2.16689 62.5085,2.50022 88.5,3.5C 75.5,3.83333 62.5,4.16667 49.5,4.5C 36.1491,4.49919 23.1491,3.83253 10.5,2.5 Z"/></g>
<g><path style="opacity:0.967" fill="#1772b7" d="M 87.5,25.5 C 86.5184,28.9619 86.185,32.6286 86.5,36.5C 84.5444,52.6615 82.8777,68.9948 81.5,85.5C 78.8478,85.4095 76.5145,86.0762 74.5,87.5C 68.2309,88.5646 62.2309,90.2313 56.5,92.5C 54.901,92.2322 53.5676,92.5655 52.5,93.5C 50.5,93.5 48.5,93.5 46.5,93.5C 45.4324,92.5655 44.099,92.2322 42.5,92.5C 36.7691,90.2313 30.7691,88.5646 24.5,87.5C 22.4855,86.0762 20.1522,85.4095 17.5,85.5C 17.7678,83.901 17.4345,82.5676 16.5,81.5C 15.8748,66.2924 14.5415,51.2924 12.5,36.5C 11.999,26.1551 11.3323,15.8217 10.5,5.5C 36.5,5.5 62.5,5.5 88.5,5.5C 87.9457,12.1531 87.6123,18.8198 87.5,25.5 Z"/></g>
<g><path style="opacity:1" fill="#3da9db" d="M 48.5,75.5 C 55.5311,73.9923 62.5311,72.3256 69.5,70.5C 70.9536,54.1769 72.2869,37.8436 73.5,21.5C 57.5,21.5 41.5,21.5 25.5,21.5C 33.3159,20.5076 41.3159,20.1743 49.5,20.5C 49.5,17.8333 49.5,15.1667 49.5,12.5C 59.8333,12.5 70.1667,12.5 80.5,12.5C 78.8936,34.8374 77.2269,57.1707 75.5,79.5C 67.0469,81.3636 58.7136,83.6969 50.5,86.5C 49.7668,82.7961 49.1002,79.1295 48.5,75.5 Z"/></g>
<g><path style="opacity:1" fill="#f4f5f6" d="M 25.5,21.5 C 41.5,21.5 57.5,21.5 73.5,21.5C 72.2869,37.8436 70.9536,54.1769 69.5,70.5C 62.5311,72.3256 55.5311,73.9923 48.5,75.5C 42.4346,74.317 36.4346,72.817 30.5,71C 29.5401,65.9123 28.8734,60.7457 28.5,55.5C 31.8333,55.5 35.1667,55.5 38.5,55.5C 38.2317,58.1194 38.565,60.6194 39.5,63C 42.8017,64.0262 46.1351,64.8596 49.5,65.5C 53.0772,64.7311 56.5772,63.7311 60,62.5C 60.4988,58.5138 60.6655,54.5138 60.5,50.5C 56.8333,50.5 53.1667,50.5 49.5,50.5C 45.8333,50.5 42.1667,50.5 38.5,50.5C 38.5,47.1667 38.5,43.8333 38.5,40.5C 42.1667,40.5 45.8333,40.5 49.5,40.5C 53.8333,40.5 58.1667,40.5 62.5,40.5C 62.6159,37.1401 62.9492,33.8067 63.5,30.5C 51.1667,30.5 38.8333,30.5 26.5,30.5C 25.5233,27.7131 25.19,24.7131 25.5,21.5 Z"/></g>
<g><path style="opacity:0.02" fill="#2074b1" d="M 87.5,36.5 C 87.5,32.8333 87.5,29.1667 87.5,25.5C 88.6516,19.0203 89.485,12.3536 90,5.5C 90.3419,16.0569 89.5086,26.3903 87.5,36.5 Z"/></g>
<g><path style="opacity:0.024" fill="#2069a9" d="M 11.5,36.5 C 9.49144,26.3903 8.65811,16.0569 9,5.5C 10.1648,15.8117 10.9981,26.145 11.5,36.5 Z"/></g>
<g><path style="opacity:1" fill="#4facdb" d="M 26.5,30.5 C 38.8333,30.5 51.1667,30.5 63.5,30.5C 62.9492,33.8067 62.6159,37.1401 62.5,40.5C 58.1667,40.5 53.8333,40.5 49.5,40.5C 49.5,37.5 49.5,34.5 49.5,31.5C 41.6484,31.8254 33.9818,31.492 26.5,30.5 Z"/></g>
<g><path style="opacity:0.02" fill="#1f719f" d="M 86.5,36.5 C 86.8333,36.5 87.1667,36.5 87.5,36.5C 87.8168,40.7016 87.4834,44.7016 86.5,48.5C 86.5,44.5 86.5,40.5 86.5,36.5 Z"/></g>
<g><path style="opacity:0.016" fill="#206db6" d="M 11.5,36.5 C 11.8333,36.5 12.1667,36.5 12.5,36.5C 13.4461,51.1805 14.2795,65.8472 15,80.5C 13.1707,65.8814 12.004,51.2147 11.5,36.5 Z"/></g>
<g><path style="opacity:0.016" fill="#1b76b8" d="M 86.5,48.5 C 86.2626,59.2085 85.4292,69.8752 84,80.5C 83.9137,69.6337 84.747,58.967 86.5,48.5 Z"/></g>
<g><path style="opacity:1" fill="#34a8db" d="M 49.5,50.5 C 53.1667,50.5 56.8333,50.5 60.5,50.5C 60.6655,54.5138 60.4988,58.5138 60,62.5C 56.5772,63.7311 53.0772,64.7311 49.5,65.5C 49.5,60.5 49.5,55.5 49.5,50.5 Z"/></g>
<g><path style="opacity:0.012" fill="#2e75d0" d="M 16.5,81.5 C 16.5,82.8333 16.5,84.1667 16.5,85.5C 15.1667,84.1667 15.1667,82.8333 16.5,81.5 Z"/></g>
<g><path style="opacity:0.012" fill="#2e75d0" d="M 82.5,85.5 C 82.3433,84.1266 82.51,82.7932 83,81.5C 83.765,83.0657 83.5983,84.3991 82.5,85.5 Z"/></g>
<g><path style="opacity:0.004" fill="#000000" d="M 16.5,85.5 C 16.8333,85.5 17.1667,85.5 17.5,85.5C 17.5,85.8333 17.5,86.1667 17.5,86.5C 17.1667,86.1667 16.8333,85.8333 16.5,85.5 Z"/></g>
<g><path style="opacity:0.004" fill="#000000" d="M 81.5,85.5 C 81.8333,85.5 82.1667,85.5 82.5,85.5C 82.3147,86.1701 81.9813,86.1701 81.5,85.5 Z"/></g>
<g><path style="opacity:0.016" fill="#2364c5" d="M 17.5,86.5 C 18.552,86.3505 19.552,86.5172 20.5,87C 19.2506,87.7401 18.2506,87.5735 17.5,86.5 Z"/></g>
<g><path style="opacity:0.016" fill="#2364c5" d="M 81.5,86.5 C 80.7494,87.5735 79.7494,87.7401 78.5,87C 79.448,86.5172 80.448,86.3505 81.5,86.5 Z"/></g>
<g><path style="opacity:0.016" fill="#19679d" d="M 24.5,87.5 C 25.2625,88.2679 26.2625,88.7679 27.5,89C 25.3646,89.6347 23.3646,89.3014 21.5,88C 22.448,87.5172 23.448,87.3505 24.5,87.5 Z"/></g>
<g><path style="opacity:0.024" fill="#18699d" d="M 74.5,87.5 C 76.3474,87.2342 77.014,87.5675 76.5,88.5C 74.9017,89.4847 73.235,89.6514 71.5,89C 72.7375,88.7679 73.7375,88.2679 74.5,87.5 Z"/></g>
<g><path style="opacity:0.016" fill="#1b7aa4" d="M 42.5,92.5 C 43.5676,93.4345 44.901,93.7678 46.5,93.5C 46.5,93.8333 46.5,94.1667 46.5,94.5C 43.7294,94.5793 41.0627,94.0793 38.5,93C 39.7932,92.51 41.1266,92.3433 42.5,92.5 Z"/></g>
<g><path style="opacity:0.02" fill="#1a739b" d="M 56.5,92.5 C 57.8734,92.3433 59.2068,92.51 60.5,93C 57.9373,94.0793 55.2706,94.5793 52.5,94.5C 52.5,94.1667 52.5,93.8333 52.5,93.5C 54.099,93.7678 55.4324,93.4345 56.5,92.5 Z"/></g>
<g><path style="opacity:0.016" fill="#1b7cbf" d="M 46.5,94.5 C 48.5,94.5 50.5,94.5 52.5,94.5C 50.5,95.8333 48.5,95.8333 46.5,94.5 Z"/></g>
</svg>
