<?xml version="1.0" encoding="UTF-8"?>
<svg version="1.1" xmlns="http://www.w3.org/2000/svg" width="204" height="192">
<path d="M0 0 C1.12664062 0.350625 2.25328125 0.70125 3.4140625 1.0625 C12.04104093 4.02738041 18.7341116 8.6088379 26 14 C26.99 14.66 27.98 15.32 29 16 C29 16.66 29 17.32 29 18 C29.56203125 18.22171875 30.1240625 18.4434375 30.703125 18.671875 C45.2716408 27.09584672 52.64810506 48.61027314 56.74609375 63.7578125 C61.49970893 85.19825613 56.58151678 108.63885086 45.05078125 127.125 C40.8701425 133.03867367 36.25779332 139.00139367 31 144 C30.34 144 29.68 144 29 144 C29 144.66 29 145.32 29 146 C10.10132554 162.45296365 -13.59484834 167.48671634 -38 166 C-53.52920453 164.28425573 -67.46903781 157.04533822 -80 148 C-81.485 147.01 -81.485 147.01 -83 146 C-83 145.34 -83 144.68 -83 144 C-83.56203125 143.77828125 -84.1240625 143.5565625 -84.703125 143.328125 C-99.2716408 134.90415328 -106.64810506 113.38972686 -110.74609375 98.2421875 C-115.57382158 76.46747025 -110.40241932 52.81182268 -98.6171875 34.11328125 C-96.53804099 30.9681827 -94.42891517 27.88897446 -92 25 C-91.34 25 -90.68 25 -90 25 C-89.731875 24.401875 -89.46375 23.80375 -89.1875 23.1875 C-88.00082594 21.00152146 -86.90400887 19.58667406 -85 18 C-84.34 18 -83.68 18 -83 18 C-83 17.34 -83 16.68 -83 16 C-74.92675661 9.30881498 -65.79172917 4.5463897 -56.0625 0.8125 C-55.41845215 0.56234131 -54.7744043 0.31218262 -54.11083984 0.05444336 C-36.69441424 -6.39551952 -17.47520979 -5.7618913 0 0 Z " fill="#EE3AA8" transform="translate(129,15)"/>
<path d="M0 0 C0.85529297 -0.01611328 1.71058594 -0.03222656 2.59179688 -0.04882812 C8.36865728 -0.05323458 12.82496946 0.90974828 18.0625 3.3125 C19.609375 3.98539063 19.609375 3.98539063 21.1875 4.671875 C32.03681467 9.91964134 38.69595611 16.09039009 45.0625 26.3125 C45.47628906 26.97121094 45.89007813 27.62992188 46.31640625 28.30859375 C53.76440447 41.52810351 51.49524077 57.31590816 48.0625 71.3125 C47.4025 71.3125 46.7425 71.3125 46.0625 71.3125 C45.96839844 72.02792969 45.87429687 72.74335937 45.77734375 73.48046875 C43.43408536 82.76386946 34.81840487 90.28658226 27.0625 95.3125 C23.47836197 97.22404028 19.85646675 98.86450677 16.0625 100.3125 C14.71865234 100.86357422 14.71865234 100.86357422 13.34765625 101.42578125 C8.93719592 102.61623844 4.79788604 102.6419824 0.25 102.625 C-0.60142578 102.64111328 -1.45285156 102.65722656 -2.33007812 102.67382812 C-15.44121017 102.68381375 -27.39569809 96.44636307 -36.8671875 87.5859375 C-47.79404023 75.5870162 -51.46680235 61.85935233 -51.1796875 45.98828125 C-50.31486607 32.86252378 -43.61012201 21.16192013 -33.9375 12.3125 C-23.13157205 4.47228658 -13.34855807 -0.05006961 0 0 Z " fill="#93378E" transform="translate(101.9375,44.6875)"/>
<path d="M0 0 C13.66184323 10.63138299 23.14814983 26.78354672 26.32275391 43.78466797 C28.43662072 64.26610303 23.53603208 83.06719082 10.67822266 99.20654297 C0.20269732 111.60506602 -16.06096557 121.17566129 -32.37963867 123.10400391 C-35.19480363 123.25735335 -37.98300931 123.30354572 -40.80224609 123.28466797 C-41.80562012 123.27894775 -42.80899414 123.27322754 -43.84277344 123.26733398 C-61.4929029 122.84816811 -77.50721566 115.63814065 -90.24365234 103.38232422 C-97.02118324 96.14788113 -101.7176364 87.83357427 -105.67724609 78.78466797 C-106.09361328 77.83462891 -106.50998047 76.88458984 -106.93896484 75.90576172 C-112.617873 60.62252468 -111.33049729 42.53513441 -104.67724609 27.78466797 C-96.07819974 9.22575058 -82.50201201 -2.61169341 -63.67724609 -10.21533203 C-62.84064453 -10.55822266 -62.00404297 -10.90111328 -61.14208984 -11.25439453 C-40.81280621 -18.14895348 -16.95129154 -12.28290092 0 0 Z M-59.67724609 6.78466797 C-60.70849609 7.23326172 -61.73974609 7.68185547 -62.80224609 8.14404297 C-77.3389902 15.17540289 -86.57664836 26.09796443 -91.92724609 41.34716797 C-94.72182475 54.21230036 -93.31347123 69.45354955 -86.36474609 80.72216797 C-85.16433969 82.43024625 -83.93724228 84.12006094 -82.67724609 85.78466797 C-82.20287109 86.44080078 -81.72849609 87.09693359 -81.23974609 87.77294922 C-75.2658981 95.42694196 -66.66415356 100.42254479 -57.67724609 103.78466797 C-56.80197266 104.14302734 -55.92669922 104.50138672 -55.02490234 104.87060547 C-50.58626484 106.0825555 -46.44454771 106.11426954 -41.86474609 106.09716797 C-41.01332031 106.11328125 -40.16189453 106.12939453 -39.28466797 106.14599609 C-26.17568265 106.15598009 -14.23824198 99.92076413 -4.75927734 91.07373047 C-0.7345697 86.64881737 4.32275391 80.96759184 4.32275391 74.78466797 C4.98275391 74.78466797 5.64275391 74.78466797 6.32275391 74.78466797 C10.15452926 59.16106015 11.64589143 43.80702894 3.08056641 29.44873047 C-5.41502269 16.57319322 -16.44502633 7.37052252 -31.67724609 3.78466797 C-34.9946528 3.48755012 -38.28564985 3.45968074 -41.61474609 3.47216797 C-42.89768555 3.44799805 -42.89768555 3.44799805 -44.20654297 3.42333984 C-49.98340337 3.41893339 -54.43971555 4.38191625 -59.67724609 6.78466797 Z " fill="#BD389C" transform="translate(143.67724609375,41.21533203125)"/>
<path d="M0 0 C8.2071338 5.33632568 12.78802547 12.59910824 15 22 C16.34128964 32.81725252 14.32434519 42.53284932 7.75 51.375 C-0.12687513 58.89383535 -8.40255544 63.00586663 -19.3125 63.5 C-28.65688319 63.27022009 -37.51355686 59.79532139 -44 53 C-50.78483217 44.42263192 -53.68771189 36.32111667 -53.41796875 25.3515625 C-52.40775391 17.25096128 -48.90737588 9.63885879 -43 4 C-40.10916157 1.79096309 -37.12852902 -0.1458543 -34 -2 C-32.96875 -2.61875 -31.9375 -3.2375 -30.875 -3.875 C-20.66559367 -7.80716114 -9.16809565 -5.16592386 0 0 Z " fill="#563379" transform="translate(121,67)"/>
</svg>
