<?xml version="1.0" encoding="UTF-8"?>
<!DOCTYPE svg PUBLIC "-//W3C//DTD SVG 1.1//EN" "http://www.w3.org/Graphics/SVG/1.1/DTD/svg11.dtd">
<svg xmlns="http://www.w3.org/2000/svg" version="1.1" width="100px" height="100px" style="shape-rendering:geometricPrecision; text-rendering:geometricPrecision; image-rendering:optimizeQuality; fill-rule:evenodd; clip-rule:evenodd" xmlns:xlink="http://www.w3.org/1999/xlink">
<g><path style="opacity:1" fill="#2c9d65" d="M 44.5,-0.5 C 51.5,-0.5 58.5,-0.5 65.5,-0.5C 65.5,24.5 65.5,49.5 65.5,74.5C 50.5258,76.8611 35.5258,77.0278 20.5,75C 10.2309,72.883 3.23086,67.0497 -0.5,57.5C -0.5,53.1667 -0.5,48.8333 -0.5,44.5C 3.65403,32.8679 11.9874,26.0345 24.5,24C 31.1583,23.5004 37.825,23.3337 44.5,23.5C 44.5,15.5 44.5,7.5 44.5,-0.5 Z"/></g>
<g><path style="opacity:1" fill="#259a61" d="M 76.5,-0.5 C 83.1667,-0.5 89.8333,-0.5 96.5,-0.5C 96.5,4.83333 96.5,10.1667 96.5,15.5C 89.8333,15.5 83.1667,15.5 76.5,15.5C 76.5,10.1667 76.5,4.83333 76.5,-0.5 Z"/></g>
<g><path style="opacity:1" fill="#9cc6ad" d="M 96.5,-0.5 C 96.8333,-0.5 97.1667,-0.5 97.5,-0.5C 97.5,5.16667 97.5,10.8333 97.5,16.5C 90.3134,16.8245 83.3134,16.4912 76.5,15.5C 83.1667,15.5 89.8333,15.5 96.5,15.5C 96.5,10.1667 96.5,4.83333 96.5,-0.5 Z"/></g>
<g><path style="opacity:1" fill="#309e67" d="M 99.5,25.5 C 99.5,41.8333 99.5,58.1667 99.5,74.5C 97.2543,86.7518 90.2543,95.0851 78.5,99.5C 77.5,99.5 76.5,99.5 75.5,99.5C 69.8588,97.1128 64.1921,94.6128 58.5,92C 67.9004,89.4162 74.0671,83.5828 77,74.5C 78.3283,58.197 78.8283,41.8637 78.5,25.5C 85.5,25.5 92.5,25.5 99.5,25.5 Z"/></g>
<g><path style="opacity:1" fill="#f6faf8" d="M 33.5,36.5 C 37.2396,36.2408 40.9062,36.5741 44.5,37.5C 45.816,46.3929 45.816,55.2263 44.5,64C 35.8346,66.2106 28.6679,64.0439 23,57.5C 19.094,46.6447 22.594,39.6447 33.5,36.5 Z"/></g>
</svg>
