<?xml version="1.0" encoding="UTF-8"?>
<!DOCTYPE svg PUBLIC "-//W3C//DTD SVG 1.1//EN" "http://www.w3.org/Graphics/SVG/1.1/DTD/svg11.dtd">
<svg xmlns="http://www.w3.org/2000/svg" version="1.1" width="100px" height="100px" style="shape-rendering:geometricPrecision; text-rendering:geometricPrecision; image-rendering:optimizeQuality; fill-rule:evenodd; clip-rule:evenodd" xmlns:xlink="http://www.w3.org/1999/xlink">
<g><path style="opacity:1" fill="#aeaeae" d="M 28.5,10.5 C 27.596,9.79105 27.2627,8.79105 27.5,7.5C 26.209,7.26269 25.209,7.59603 24.5,8.5C 22.9827,5.5053 23.9827,4.33864 27.5,5C 28.4061,6.69946 28.7394,8.5328 28.5,10.5 Z"/></g>
<g><path style="opacity:1" fill="#d8d8d8" d="M 34.5,20.5 C 33.8333,20.5 33.1667,20.5 32.5,20.5C 31.5,19.8333 30.5,19.1667 29.5,18.5C 29.8333,18.5 30.1667,18.5 30.5,18.5C 31.4916,18.6716 32.1583,18.3382 32.5,17.5C 35.3992,16.5056 36.0659,17.5056 34.5,20.5 Z"/></g>
<g><path style="opacity:1" fill="#4e4e4e" d="M 23.5,13.5 C 23.5,15.5 23.5,17.5 23.5,19.5C 25.5,19.1667 27.5,18.8333 29.5,18.5C 30.5,19.1667 31.5,19.8333 32.5,20.5C 29.1834,20.781 26.0168,20.781 23,20.5C 21.9085,22.1166 20.4085,23.1166 18.5,23.5C 17.9232,20.4503 19.0899,18.4503 22,17.5C 22.21,15.9419 22.71,14.6085 23.5,13.5 Z"/></g>
<g><path style="opacity:1" fill="#1f1f1f" d="M 28.5,10.5 C 29.8734,10.3433 31.2068,10.51 32.5,11C 35.9632,13.2925 39.2966,15.7925 42.5,18.5C 41.791,19.404 40.791,19.7373 39.5,19.5C 39.6495,20.552 39.4828,21.552 39,22.5C 38.5831,21.244 37.7498,20.5774 36.5,20.5C 35.8333,20.5 35.1667,20.5 34.5,20.5C 36.0659,17.5056 35.3992,16.5056 32.5,17.5C 32.5,16.5 32.5,15.5 32.5,14.5C 29.9026,14.6432 27.5692,15.4766 25.5,17C 27.1124,17.7203 28.6124,17.5536 30,16.5C 30.4643,17.0944 30.631,17.7611 30.5,18.5C 30.1667,18.5 29.8333,18.5 29.5,18.5C 27.5,18.8333 25.5,19.1667 23.5,19.5C 23.5,17.5 23.5,15.5 23.5,13.5C 23.9528,12.5416 24.6195,11.7083 25.5,11C 24.7476,10.3292 24.4142,9.4959 24.5,8.5C 25.209,7.59603 26.209,7.26269 27.5,7.5C 27.2627,8.79105 27.596,9.79105 28.5,10.5 Z"/></g>
<g><path style="opacity:1" fill="#959595" d="M 32.5,17.5 C 32.1583,18.3382 31.4916,18.6716 30.5,18.5C 30.631,17.7611 30.4643,17.0944 30,16.5C 28.6124,17.5536 27.1124,17.7203 25.5,17C 27.5692,15.4766 29.9026,14.6432 32.5,14.5C 32.5,15.5 32.5,16.5 32.5,17.5 Z"/></g>
<g><path style="opacity:1" fill="#d6d6d6" d="M 42.5,18.5 C 44.153,18.6596 45.4863,19.3263 46.5,20.5C 45.7326,21.172 45.0659,22.0053 44.5,23C 45.7375,23.2321 46.7375,23.7321 47.5,24.5C 46.5,24.5 45.5,24.5 44.5,24.5C 44.5,26.1667 44.5,27.8333 44.5,29.5C 43.1667,30.1667 41.8333,30.8333 40.5,31.5C 41.5025,29.9891 42.1692,28.3224 42.5,26.5C 43.7733,25.9232 43.7733,25.2565 42.5,24.5C 36.8759,25.2393 31.5426,26.906 26.5,29.5C 24.703,28.0679 23.3697,28.4012 22.5,30.5C 21.2058,29.7101 20.0391,28.7101 19,27.5C 18.5357,28.0944 18.369,28.7611 18.5,29.5C 17.5798,30.0674 17.2465,29.4008 17.5,27.5C 19.3632,24.8851 21.3632,24.8851 23.5,27.5C 24.4287,26.3112 24.762,24.9778 24.5,23.5C 25.8333,23.5 27.1667,23.5 28.5,23.5C 31.776,23.856 34.4427,22.856 36.5,20.5C 37.7498,20.5774 38.5831,21.244 39,22.5C 39.4828,21.552 39.6495,20.552 39.5,19.5C 40.791,19.7373 41.791,19.404 42.5,18.5 Z"/></g>
<g><path style="opacity:1" fill="#212121" d="M 46.5,20.5 C 47.609,20.5569 48.609,20.8902 49.5,21.5C 49.7373,22.791 49.404,23.791 48.5,24.5C 48.1667,24.5 47.8333,24.5 47.5,24.5C 46.7375,23.7321 45.7375,23.2321 44.5,23C 45.0659,22.0053 45.7326,21.172 46.5,20.5 Z"/></g>
<g><path style="opacity:1" fill="#131313" d="M 32.5,20.5 C 31.1667,21.5 29.8333,22.5 28.5,23.5C 27.1667,23.5 25.8333,23.5 24.5,23.5C 24.762,24.9778 24.4287,26.3112 23.5,27.5C 21.3632,24.8851 19.3632,24.8851 17.5,27.5C 16.6618,27.1583 16.3284,26.4916 16.5,25.5C 16.8333,24.5 17.5,23.8333 18.5,23.5C 20.4085,23.1166 21.9085,22.1166 23,20.5C 26.0168,20.781 29.1834,20.781 32.5,20.5 Z"/></g>
<g><path style="opacity:1" fill="#999999" d="M 32.5,20.5 C 33.1667,20.5 33.8333,20.5 34.5,20.5C 35.1667,20.5 35.8333,20.5 36.5,20.5C 34.4427,22.856 31.776,23.856 28.5,23.5C 29.8333,22.5 31.1667,21.5 32.5,20.5 Z"/></g>
<g><path style="opacity:1" fill="#8d8d8d" d="M 49.5,21.5 C 51.1042,22.287 51.7709,23.6203 51.5,25.5C 50.209,25.7373 49.209,25.404 48.5,24.5C 49.404,23.791 49.7373,22.791 49.5,21.5 Z"/></g>
<g><path style="opacity:1" fill="#f2f2f2" d="M 42.5,26.5 C 42.1692,28.3224 41.5025,29.9891 40.5,31.5C 40.8212,33.0481 41.8212,33.7148 43.5,33.5C 43.7399,36.5788 43.4066,39.5788 42.5,42.5C 44.5765,46.23 45.7431,50.23 46,54.5C 47.6033,57.6115 49.4366,60.6115 51.5,63.5C 50.6744,64.451 50.5078,65.451 51,66.5C 52.073,66.2014 53.2397,66.2014 54.5,66.5C 54.7512,68.1703 55.4178,69.6703 56.5,71C 61.6857,74.8391 67.3524,77.8391 73.5,80C 70.7795,80.6015 68.1128,80.4349 65.5,79.5C 65.1344,78.3054 64.301,77.6387 63,77.5C 60.6763,78.6932 58.5097,78.6932 56.5,77.5C 55.1655,75.8044 53.8322,74.1377 52.5,72.5C 51.0892,70.086 49.0892,68.4194 46.5,67.5C 45.4489,66.7777 44.7822,65.7777 44.5,64.5C 43.4324,62.2598 41.7658,60.4264 39.5,59C 42.1835,56.8784 41.8501,55.3784 38.5,54.5C 37.4324,53.5655 36.099,53.2322 34.5,53.5C 34.7035,51.6096 34.0368,50.1096 32.5,49C 33.4158,48.7216 34.0825,48.2216 34.5,47.5C 35.675,47.719 36.675,47.3857 37.5,46.5C 37.3764,45.8933 37.0431,45.56 36.5,45.5C 36.1667,44.8333 35.8333,44.1667 35.5,43.5C 34.4726,41.8058 33.1392,40.4725 31.5,39.5C 32.6491,39.2089 33.3158,38.3756 33.5,37C 33.3333,36.1667 33.1667,35.3333 33,34.5C 31.383,36.7632 29.5497,38.7632 27.5,40.5C 25.9519,40.1788 25.2852,39.1788 25.5,37.5C 28.741,36.9626 29.741,35.2959 28.5,32.5C 32.801,29.5152 37.4677,27.5152 42.5,26.5 Z"/></g>
<g><path style="opacity:1" fill="#5b5b5b" d="M 16.5,25.5 C 16.3284,26.4916 16.6618,27.1583 17.5,27.5C 17.2465,29.4008 17.5798,30.0674 18.5,29.5C 19.0431,29.56 19.3764,29.8933 19.5,30.5C 18.3881,31.2652 17.7214,32.2652 17.5,33.5C 15.5873,30.96 15.254,28.2933 16.5,25.5 Z"/></g>
<g><path style="opacity:1" fill="#a1a1a1" d="M 25.5,32.5 C 28.1667,33.1667 28.1667,33.8333 25.5,34.5C 25.5,33.8333 25.5,33.1667 25.5,32.5 Z"/></g>
<g><path style="opacity:1" fill="#292929" d="M 42.5,26.5 C 37.4677,27.5152 32.801,29.5152 28.5,32.5C 29.741,35.2959 28.741,36.9626 25.5,37.5C 24.663,37.6021 23.9963,38.6021 23.5,40.5C 23.1667,39.8333 22.8333,39.1667 22.5,38.5C 23.3898,37.0445 23.3898,35.7112 22.5,34.5C 23.4246,33.4376 24.4246,33.4376 25.5,34.5C 28.1667,33.8333 28.1667,33.1667 25.5,32.5C 24.5,31.8333 23.5,31.1667 22.5,30.5C 23.3697,28.4012 24.703,28.0679 26.5,29.5C 31.5426,26.906 36.8759,25.2393 42.5,24.5C 43.7733,25.2565 43.7733,25.9232 42.5,26.5 Z"/></g>
<g><path style="opacity:1" fill="#626262" d="M 18.5,38.5 C 19.675,38.281 20.675,38.6143 21.5,39.5C 21.1543,40.6956 20.6543,40.6956 20,39.5C 19.5172,40.448 19.3505,41.448 19.5,42.5C 18.5655,41.4324 18.2322,40.099 18.5,38.5 Z"/></g>
<g><path style="opacity:1" fill="#747474" d="M 31.5,39.5 C 30.0735,41.1484 29.2401,43.1484 29,45.5C 28.79,43.9419 28.29,42.6085 27.5,41.5C 27.5,41.1667 27.5,40.8333 27.5,40.5C 29.5497,38.7632 31.383,36.7632 33,34.5C 33.1667,35.3333 33.3333,36.1667 33.5,37C 33.3158,38.3756 32.6491,39.2089 31.5,39.5 Z"/></g>
<g><path style="opacity:1" fill="#cacaca" d="M 31.5,39.5 C 33.1392,40.4725 34.4726,41.8058 35.5,43.5C 34.2241,44.3864 34.2241,45.3864 35.5,46.5C 36.1067,46.3764 36.44,46.0431 36.5,45.5C 37.0431,45.56 37.3764,45.8933 37.5,46.5C 36.675,47.3857 35.675,47.719 34.5,47.5C 33.7784,47.0825 33.2784,46.4158 33,45.5C 31.9326,46.1905 30.7659,46.6905 29.5,47C 30.3802,48.3561 30.7135,49.8561 30.5,51.5C 32.1993,51.5271 33.5326,52.1938 34.5,53.5C 36.099,53.2322 37.4324,53.5655 38.5,54.5C 37.325,54.281 36.325,54.6143 35.5,55.5C 36.5131,58.5638 37.3464,61.5638 38,64.5C 34.3339,62.8413 33.1673,60.1747 34.5,56.5C 33.5637,55.0256 32.2303,54.0256 30.5,53.5C 29.221,49.7767 27.5543,46.2767 25.5,43C 26.0442,42.2828 26.7109,41.7828 27.5,41.5C 28.29,42.6085 28.79,43.9419 29,45.5C 29.2401,43.1484 30.0735,41.1484 31.5,39.5 Z"/></g>
<g><path style="opacity:1" fill="#272727" d="M 35.5,43.5 C 35.8333,44.1667 36.1667,44.8333 36.5,45.5C 36.44,46.0431 36.1067,46.3764 35.5,46.5C 34.2241,45.3864 34.2241,44.3864 35.5,43.5 Z"/></g>
<g><path style="opacity:1" fill="#525252" d="M 39.5,42.5 C 41.3442,43.2039 41.8442,44.5372 41,46.5C 39.8118,45.4366 39.3118,44.1033 39.5,42.5 Z"/></g>
<g><path style="opacity:1" fill="#7f7f7f" d="M 44.5,29.5 C 43.692,43.2889 47.3587,55.6222 55.5,66.5C 55.1667,66.5 54.8333,66.5 54.5,66.5C 53.2397,66.2014 52.073,66.2014 51,66.5C 50.5078,65.451 50.6744,64.451 51.5,63.5C 49.4366,60.6115 47.6033,57.6115 46,54.5C 45.7431,50.23 44.5765,46.23 42.5,42.5C 43.4066,39.5788 43.7399,36.5788 43.5,33.5C 41.8212,33.7148 40.8212,33.0481 40.5,31.5C 41.8333,30.8333 43.1667,30.1667 44.5,29.5 Z"/></g>
<g><path style="opacity:1" fill="#313131" d="M 34.5,47.5 C 34.0825,48.2216 33.4158,48.7216 32.5,49C 34.0368,50.1096 34.7035,51.6096 34.5,53.5C 33.5326,52.1938 32.1993,51.5271 30.5,51.5C 30.7135,49.8561 30.3802,48.3561 29.5,47C 30.7659,46.6905 31.9326,46.1905 33,45.5C 33.2784,46.4158 33.7784,47.0825 34.5,47.5 Z"/></g>
<g><path style="opacity:1" fill="#828282" d="M 19.5,42.5 C 20.675,42.281 21.675,42.6143 22.5,43.5C 24.6445,55.4644 30.1445,65.4644 39,73.5C 39.6667,74.1667 39.6667,74.8333 39,75.5C 38.1841,74.1772 37.0174,73.5106 35.5,73.5C 26.7643,65.0313 21.4309,54.6979 19.5,42.5 Z"/></g>
<g><path style="opacity:1" fill="#727272" d="M 44.5,64.5 C 44.7822,65.7777 45.4489,66.7777 46.5,67.5C 46.0133,68.4734 45.5133,69.4734 45,70.5C 44.1841,69.1772 43.0174,68.5106 41.5,68.5C 41.5,68.1667 41.5,67.8333 41.5,67.5C 41.9175,66.7784 42.5842,66.2784 43.5,66C 39.5984,63.6019 39.9317,63.1019 44.5,64.5 Z"/></g>
<g><path style="opacity:1" fill="#151515" d="M 22.5,30.5 C 23.5,31.1667 24.5,31.8333 25.5,32.5C 25.5,33.1667 25.5,33.8333 25.5,34.5C 24.4246,33.4376 23.4246,33.4376 22.5,34.5C 23.3898,35.7112 23.3898,37.0445 22.5,38.5C 22.8333,39.1667 23.1667,39.8333 23.5,40.5C 23.9963,38.6021 24.663,37.6021 25.5,37.5C 25.2852,39.1788 25.9519,40.1788 27.5,40.5C 27.5,40.8333 27.5,41.1667 27.5,41.5C 26.7109,41.7828 26.0442,42.2828 25.5,43C 27.5543,46.2767 29.221,49.7767 30.5,53.5C 32.2303,54.0256 33.5637,55.0256 34.5,56.5C 33.1673,60.1747 34.3339,62.8413 38,64.5C 37.3464,61.5638 36.5131,58.5638 35.5,55.5C 36.325,54.6143 37.325,54.281 38.5,54.5C 41.8501,55.3784 42.1835,56.8784 39.5,59C 41.7658,60.4264 43.4324,62.2598 44.5,64.5C 39.9317,63.1019 39.5984,63.6019 43.5,66C 42.5842,66.2784 41.9175,66.7784 41.5,67.5C 39.7615,66.5661 38.0948,66.5661 36.5,67.5C 38.0697,69.3788 39.7363,69.7122 41.5,68.5C 43.0174,68.5106 44.1841,69.1772 45,70.5C 45.5133,69.4734 46.0133,68.4734 46.5,67.5C 49.0892,68.4194 51.0892,70.086 52.5,72.5C 51.0331,71.7084 49.6998,71.7084 48.5,72.5C 49.8498,73.9501 51.5165,74.6168 53.5,74.5C 53.5,75.5 53.5,76.5 53.5,77.5C 54.5,77.5 55.5,77.5 56.5,77.5C 58.5097,78.6932 60.6763,78.6932 63,77.5C 64.301,77.6387 65.1344,78.3054 65.5,79.5C 63.8974,78.3228 62.564,78.4894 61.5,80C 62.7375,80.2321 63.7375,80.7321 64.5,81.5C 66.2922,82.3091 68.2922,82.8091 70.5,83C 69.5842,83.2784 68.9175,83.7784 68.5,84.5C 59.9212,83.9718 51.9212,81.6385 44.5,77.5C 43.1508,77.8457 41.8175,78.179 40.5,78.5C 38.5,77.1667 36.8333,75.5 35.5,73.5C 37.0174,73.5106 38.1841,74.1772 39,75.5C 39.6667,74.8333 39.6667,74.1667 39,73.5C 30.1445,65.4644 24.6445,55.4644 22.5,43.5C 21.675,42.6143 20.675,42.281 19.5,42.5C 19.3505,41.448 19.5172,40.448 20,39.5C 20.6543,40.6956 21.1543,40.6956 21.5,39.5C 20.675,38.6143 19.675,38.281 18.5,38.5C 17.6993,36.9582 17.366,35.2915 17.5,33.5C 17.7214,32.2652 18.3881,31.2652 19.5,30.5C 19.3764,29.8933 19.0431,29.56 18.5,29.5C 18.369,28.7611 18.5357,28.0944 19,27.5C 20.0391,28.7101 21.2058,29.7101 22.5,30.5 Z"/></g>
<g><path style="opacity:1" fill="#bdbdbd" d="M 41.5,67.5 C 41.5,67.8333 41.5,68.1667 41.5,68.5C 39.7363,69.7122 38.0697,69.3788 36.5,67.5C 38.0948,66.5661 39.7615,66.5661 41.5,67.5 Z"/></g>
<g><path style="opacity:1" fill="#969696" d="M 52.5,72.5 C 53.8322,74.1377 55.1655,75.8044 56.5,77.5C 55.5,77.5 54.5,77.5 53.5,77.5C 53.5,76.5 53.5,75.5 53.5,74.5C 51.5165,74.6168 49.8498,73.9501 48.5,72.5C 49.6998,71.7084 51.0331,71.7084 52.5,72.5 Z"/></g>
<g><path style="opacity:1" fill="#2c2c2c" d="M 54.5,66.5 C 54.8333,66.5 55.1667,66.5 55.5,66.5C 60.5009,71.9751 66.6676,75.6417 74,77.5C 76.1749,75.4767 78.6749,74.1434 81.5,73.5C 81.5792,74.9305 81.2458,76.2638 80.5,77.5C 81.3937,77.5173 82.3937,77.8506 83.5,78.5C 87.0163,80.0275 90.6829,80.3609 94.5,79.5C 94.5,80.5 94.5,81.5 94.5,82.5C 88.9402,84.0379 83.2736,85.0379 77.5,85.5C 74.4552,85.4921 71.4552,85.1587 68.5,84.5C 68.9175,83.7784 69.5842,83.2784 70.5,83C 68.2922,82.8091 66.2922,82.3091 64.5,81.5C 65.3382,81.1583 65.6716,80.4916 65.5,79.5C 68.1128,80.4349 70.7795,80.6015 73.5,80C 67.3524,77.8391 61.6857,74.8391 56.5,71C 55.4178,69.6703 54.7512,68.1703 54.5,66.5 Z"/></g>
<g><path style="opacity:1" fill="#6f6f6f" d="M 94.5,79.5 C 90.6829,80.3609 87.0163,80.0275 83.5,78.5C 87.2516,77.6235 90.9182,77.9568 94.5,79.5 Z"/></g>
<g><path style="opacity:1" fill="#acacac" d="M 65.5,79.5 C 65.6716,80.4916 65.3382,81.1583 64.5,81.5C 63.7375,80.7321 62.7375,80.2321 61.5,80C 62.564,78.4894 63.8974,78.3228 65.5,79.5 Z"/></g>
<g><path style="opacity:1" fill="#929292" d="M 68.5,84.5 C 71.4552,85.1587 74.4552,85.4921 77.5,85.5C 67.4247,87.2727 57.4247,86.4393 47.5,83C 44.7613,81.9741 42.428,80.4741 40.5,78.5C 41.8175,78.179 43.1508,77.8457 44.5,77.5C 51.9212,81.6385 59.9212,83.9718 68.5,84.5 Z"/></g>
</svg>
