<?xml version="1.0" encoding="UTF-8"?>
<!DOCTYPE svg PUBLIC "-//W3C//DTD SVG 1.1//EN" "http://www.w3.org/Graphics/SVG/1.1/DTD/svg11.dtd">
<svg xmlns="http://www.w3.org/2000/svg" version="1.1" width="100px" height="100px" style="shape-rendering:geometricPrecision; text-rendering:geometricPrecision; image-rendering:optimizeQuality; fill-rule:evenodd; clip-rule:evenodd" xmlns:xlink="http://www.w3.org/1999/xlink">
<g><path style="opacity:1" fill="#e79088" d="M 87.5,11.5 C 87.5,9.83333 87.5,8.16667 87.5,6.5C 62.1667,6.5 36.8333,6.5 11.5,6.5C 12.2919,12.1302 12.6252,17.7969 12.5,23.5C 11.4233,17.6876 10.7566,11.6876 10.5,5.5C 36.5,5.5 62.5,5.5 88.5,5.5C 88.7947,7.73535 88.4614,9.73535 87.5,11.5 Z"/></g>
<g><path style="opacity:1" fill="#dc3e23" d="M 87.5,11.5 C 87.1505,23.0363 86.1505,34.3697 84.5,45.5C 83.0279,52.9514 82.3612,60.618 82.5,68.5C 82.8199,74.1621 82.1532,79.6621 80.5,85C 71.2347,87.8161 61.9013,90.3161 52.5,92.5C 49.4824,92.2962 46.4824,91.9629 43.5,91.5C 37.2309,90.4354 31.2309,88.7687 25.5,86.5C 23.4855,85.0762 21.1522,84.4095 18.5,84.5C 15.5514,64.411 13.5514,44.0777 12.5,23.5C 12.6252,17.7969 12.2919,12.1302 11.5,6.5C 36.8333,6.5 62.1667,6.5 87.5,6.5C 87.5,8.16667 87.5,9.83333 87.5,11.5 Z"/></g>
<g><path style="opacity:1" fill="#e94c20" d="M 49.5,76.5 C 50.4916,76.6716 51.1583,76.3382 51.5,75.5C 57.5929,74.4761 63.5929,73.1428 69.5,71.5C 70.1065,62.8282 70.7732,54.1615 71.5,45.5C 72.4511,44.0813 72.7845,42.4147 72.5,40.5C 60.8333,40.5 49.1667,40.5 37.5,40.5C 37.7373,39.209 37.404,38.209 36.5,37.5C 36.5,35.5 36.5,33.5 36.5,31.5C 48.8333,31.5 61.1667,31.5 73.5,31.5C 73.5,29.8333 73.5,28.1667 73.5,26.5C 73.5,25.1667 73.5,23.8333 73.5,22.5C 57.6754,21.5036 41.6754,21.1703 25.5,21.5C 33.3159,20.5076 41.3159,20.1743 49.5,20.5C 49.5,17.8333 49.5,15.1667 49.5,12.5C 59.8333,12.5 70.1667,12.5 80.5,12.5C 79.0951,34.8828 77.0951,57.2162 74.5,79.5C 66.4297,81.581 58.4297,83.9143 50.5,86.5C 49.513,83.2317 49.1796,79.8984 49.5,76.5 Z"/></g>
<g><path style="opacity:1" fill="#fefdfd" d="M 73.5,22.5 C 73.5,23.8333 73.5,25.1667 73.5,26.5C 72.5655,27.5676 72.2322,28.901 72.5,30.5C 64.8333,30.5 57.1667,30.5 49.5,30.5C 49.5,27.8333 49.5,25.1667 49.5,22.5C 57.5,22.5 65.5,22.5 73.5,22.5 Z"/></g>
<g><path style="opacity:1" fill="#e8e1e0" d="M 25.5,21.5 C 41.6754,21.1703 57.6754,21.5036 73.5,22.5C 65.5,22.5 57.5,22.5 49.5,22.5C 49.5,25.1667 49.5,27.8333 49.5,30.5C 57.1667,30.5 64.8333,30.5 72.5,30.5C 72.2322,28.901 72.5655,27.5676 73.5,26.5C 73.5,28.1667 73.5,29.8333 73.5,31.5C 61.1667,31.5 48.8333,31.5 36.5,31.5C 36.5,33.5 36.5,35.5 36.5,37.5C 36.5,38.8333 36.5,40.1667 36.5,41.5C 40.8333,41.5 45.1667,41.5 49.5,41.5C 49.5,44.5 49.5,47.5 49.5,50.5C 42.5,50.5 35.5,50.5 28.5,50.5C 28.7678,48.901 28.4345,47.5676 27.5,46.5C 26.2469,38.22 25.5802,29.8866 25.5,21.5 Z"/></g>
<g><path style="opacity:1" fill="#e97159" d="M 36.5,37.5 C 37.404,38.209 37.7373,39.209 37.5,40.5C 49.1667,40.5 60.8333,40.5 72.5,40.5C 72.7845,42.4147 72.4511,44.0813 71.5,45.5C 71.5,44.1667 71.5,42.8333 71.5,41.5C 64.1667,41.5 56.8333,41.5 49.5,41.5C 45.1667,41.5 40.8333,41.5 36.5,41.5C 36.5,40.1667 36.5,38.8333 36.5,37.5 Z"/></g>
<g><path style="opacity:1" fill="#fefafa" d="M 49.5,41.5 C 56.8333,41.5 64.1667,41.5 71.5,41.5C 71.5,42.8333 71.5,44.1667 71.5,45.5C 70.7732,54.1615 70.1065,62.8282 69.5,71.5C 63.5929,73.1428 57.5929,74.4761 51.5,75.5C 49.6122,73.0122 48.9455,70.0122 49.5,66.5C 50.791,66.7373 51.791,66.404 52.5,65.5C 54.8036,64.8368 57.1369,64.1702 59.5,63.5C 60.4287,62.3112 60.762,60.9778 60.5,59.5C 61.4767,56.7131 61.81,53.7131 61.5,50.5C 57.5,50.5 53.5,50.5 49.5,50.5C 49.5,47.5 49.5,44.5 49.5,41.5 Z"/></g>
<g><path style="opacity:1" fill="#eeb9b3" d="M 27.5,46.5 C 28.4345,47.5676 28.7678,48.901 28.5,50.5C 35.5,50.5 42.5,50.5 49.5,50.5C 53.5,50.5 57.5,50.5 61.5,50.5C 61.81,53.7131 61.4767,56.7131 60.5,59.5C 60.5,59.1667 60.5,58.8333 60.5,58.5C 60.5,56.1667 60.5,53.8333 60.5,51.5C 49.5,51.5 38.5,51.5 27.5,51.5C 27.5,49.8333 27.5,48.1667 27.5,46.5 Z"/></g>
<g><path style="opacity:1" fill="#f0aca3" d="M 84.5,45.5 C 84.4285,53.3645 83.7619,61.0312 82.5,68.5C 82.3612,60.618 83.0279,52.9514 84.5,45.5 Z"/></g>
<g><path style="opacity:1" fill="#ea4f22" d="M 60.5,58.5 C 60.5,58.8333 60.5,59.1667 60.5,59.5C 60.762,60.9778 60.4287,62.3112 59.5,63.5C 57.1369,64.1702 54.8036,64.8368 52.5,65.5C 50.5,65.5 48.5,65.5 46.5,65.5C 47.209,64.596 48.209,64.2627 49.5,64.5C 49.5,60.5 49.5,56.5 49.5,52.5C 52.8333,52.5 56.1667,52.5 59.5,52.5C 59.2053,54.7354 59.5386,56.7354 60.5,58.5 Z"/></g>
<g><path style="opacity:1" fill="#e6dfde" d="M 46.5,65.5 C 48.5,65.5 50.5,65.5 52.5,65.5C 51.791,66.404 50.791,66.7373 49.5,66.5C 48.9455,70.0122 49.6122,73.0122 51.5,75.5C 51.1583,76.3382 50.4916,76.6716 49.5,76.5C 43.0505,75.3042 36.7172,73.6375 30.5,71.5C 29.3217,66.2283 28.655,60.895 28.5,55.5C 31.8333,55.5 35.1667,55.5 38.5,55.5C 38.5,58.1667 38.5,60.8333 38.5,63.5C 41.2666,63.8583 43.9333,64.525 46.5,65.5 Z"/></g>
<g><path style="opacity:1" fill="#e98272" d="M 18.5,84.5 C 21.1522,84.4095 23.4855,85.0762 25.5,86.5C 22.8478,86.5905 20.5145,85.9238 18.5,84.5 Z"/></g>
<g><path style="opacity:1" fill="#efa499" d="M 43.5,91.5 C 46.4824,91.9629 49.4824,92.2962 52.5,92.5C 49.3726,93.8149 46.3726,93.4815 43.5,91.5 Z"/></g>
</svg>
