<?xml version="1.0" standalone="no"?>
<!DOCTYPE svg PUBLIC "-//W3C//DTD SVG 1.0//EN" "http://www.w3.org/TR/2001/REC-SVG-20010904/DTD/svg10.dtd">
<svg xmlns="http://www.w3.org/2000/svg" xmlns:xlink="http://www.w3.org/1999/xlink" id="body_1" width="100" height="100">

<g transform="matrix(0.5859375 0 0 0.5859375 12.500003 -0)">
    <path d="M47.617 98.12C 47.617 98.12 42.85 100.894005 51.014 101.83C 60.906 102.96 65.961 102.798004 76.859 100.738C 76.859 100.738 79.73 102.533 83.732 104.089C 59.293003 114.559 28.424004 103.481995 47.617 98.119995L47.617 98.119995L47.617 98.12zM44.629 84.455C 44.629 84.455 39.281002 88.414 47.452003 89.26C 58.019005 90.351006 66.362 90.44 80.806 87.66C 80.806 87.66 82.798996 89.685005 85.938 90.791C 56.396004 99.431 23.492004 91.471 44.629005 84.455z" stroke="none" fill="#0074BD" fill-rule="nonzero" />
    <path d="M69.802 61.271C 75.827 68.206 68.222 74.441 68.222 74.441C 68.222 74.441 83.511 66.55 76.491 56.664C 69.932 47.449 64.904 42.872 92.126 27.084002C 92.126 27.085001 49.395 37.754 69.802 61.271004L69.802 61.271004L69.802 61.271z" stroke="none" fill="#EA2D2E" fill-rule="nonzero" />
    <path d="M102.123 108.229C 102.123 108.229 105.652 111.139 98.235 113.38799C 84.133 117.659996 39.529 118.94799 27.140999 113.55899C 22.689999 111.62099 31.039999 108.93399 33.667 108.36699C 36.406 107.77399 37.97 107.88199 37.97 107.88199C 33.017002 104.39499 5.9570007 114.73199 24.227001 117.69699C 74.048004 125.772995 115.04401 114.05999 102.123 108.22899L102.123 108.22899L102.123 108.229zM49.912 70.294C 49.912 70.294 27.225998 75.683 41.878998 77.642C 48.066998 78.47 60.396996 78.28 71.89 77.316C 81.28 76.527 90.703 74.842 90.703 74.842C 90.703 74.842 87.395004 76.261 84.999 77.895004C 61.957 83.956 17.455002 81.133 30.268002 74.937004C 41.100002 69.698006 49.912003 70.29401 49.912003 70.29401zM90.609 93.041C 114.03 80.874 103.2 69.181 95.641 70.756C 93.793 71.141 92.964 71.476 92.964 71.476C 92.964 71.476 93.652 70.396996 94.964 69.933C 109.917 64.678 121.41499 85.436 90.141 93.658C 90.141 93.656 90.5 93.33099 90.609 93.041z" stroke="none" fill="#0074BD" fill-rule="nonzero" />
    <path d="M76.491 1.587C 76.491 1.587 89.459 14.563 64.187996 34.510002C 43.921997 50.516003 59.566998 59.64 64.18099 70.069C 52.34999 59.396 43.67199 49.999 49.492992 41.253998C 58.040993 28.419998 81.72199 22.194998 76.49099 1.586998L76.49099 1.586998L76.491 1.587z" stroke="none" fill="#EA2D2E" fill-rule="nonzero" />
    <path d="M52.214 126.021C 74.69 127.458 109.214005 125.221 110.031006 114.58501C 110.031006 114.58501 108.46001 118.617004 91.45401 121.81601C 72.268005 125.42801 48.60001 125.00701 34.56701 122.69001C 34.56701 122.69101 37.44201 125.07101 52.21401 126.02101L52.21401 126.02101L52.214 126.021z" stroke="none" fill="#0074BD" fill-rule="nonzero" />
</g>
</svg>