<?xml version="1.0" encoding="UTF-8"?>
<!DOCTYPE svg PUBLIC "-//W3C//DTD SVG 1.1//EN" "http://www.w3.org/Graphics/SVG/1.1/DTD/svg11.dtd">
<svg xmlns="http://www.w3.org/2000/svg" version="1.1" width="100px" height="100px" style="shape-rendering:geometricPrecision; text-rendering:geometricPrecision; image-rendering:optimizeQuality; fill-rule:evenodd; clip-rule:evenodd" xmlns:xlink="http://www.w3.org/1999/xlink">
<g><path style="opacity:1" fill="#ceb51d" d="M 15.5,11.5 C 38.5,11.5 61.5,11.5 84.5,11.5C 82.4442,34.8358 80.2775,58.1691 78,81.5C 68.8189,84.6293 59.4855,87.2959 50,89.5C 40.4706,87.2426 30.9706,84.9093 21.5,82.5C 19.0198,58.884 17.0198,35.2174 15.5,11.5 Z"/></g>
<g><path style="opacity:1" fill="#fefdf9" d="M 44.5,25.5 C 44.5,41.5 44.5,57.5 44.5,73.5C 38.6493,72.7168 32.9826,71.2168 27.5,69C 26.5562,66.2809 26.2229,63.4475 26.5,60.5C 29.6296,60.6997 32.6296,61.3664 35.5,62.5C 36.4952,50.3446 36.8286,38.0113 36.5,25.5C 39.1667,25.5 41.8333,25.5 44.5,25.5 Z"/></g>
<g><path style="opacity:1" fill="#f5f0ce" d="M 44.5,25.5 C 41.8333,25.5 39.1667,25.5 36.5,25.5C 36.8286,38.0113 36.4952,50.3446 35.5,62.5C 35.5,49.8333 35.5,37.1667 35.5,24.5C 38.7131,24.19 41.7131,24.5233 44.5,25.5 Z"/></g>
<g><path style="opacity:1" fill="#fbd711" d="M 49.5,17.5 C 58.8333,17.5 68.1667,17.5 77.5,17.5C 75.9437,37.5094 74.277,57.5094 72.5,77.5C 65.1929,79.494 57.8595,81.494 50.5,83.5C 49.5003,61.5101 49.167,39.5101 49.5,17.5 Z"/></g>
<g><path style="opacity:1" fill="#fbe688" d="M 73.5,29.5 C 73.5,31.1667 73.5,32.8333 73.5,34.5C 69.5,34.5 65.5,34.5 61.5,34.5C 64.9619,33.5184 68.6286,33.185 72.5,33.5C 72.2322,31.901 72.5655,30.5676 73.5,29.5 Z"/></g>
<g><path style="opacity:1" fill="#fbf0bd" d="M 73.5,25.5 C 66.8333,25.5 60.1667,25.5 53.5,25.5C 53.5,33.8333 53.5,42.1667 53.5,50.5C 56.7131,50.19 59.7131,50.5233 62.5,51.5C 59.1667,51.5 55.8333,51.5 52.5,51.5C 52.5,42.5 52.5,33.5 52.5,24.5C 59.6866,24.1755 66.6866,24.5088 73.5,25.5 Z"/></g>
<g><path style="opacity:1" fill="#fefdf9" d="M 73.5,25.5 C 73.5,26.8333 73.5,28.1667 73.5,29.5C 72.5655,30.5676 72.2322,31.901 72.5,33.5C 68.6286,33.185 64.9619,33.5184 61.5,34.5C 61.5,37.1667 61.5,39.8333 61.5,42.5C 65.1667,42.5 68.8333,42.5 72.5,42.5C 71.4474,51.4647 70.7808,60.4647 70.5,69.5C 64.4071,70.5239 58.4071,71.8572 52.5,73.5C 50.6781,65.7292 53.6781,62.0626 61.5,62.5C 61.5524,58.8019 61.8857,55.1352 62.5,51.5C 59.7131,50.5233 56.7131,50.19 53.5,50.5C 53.5,42.1667 53.5,33.8333 53.5,25.5C 60.1667,25.5 66.8333,25.5 73.5,25.5 Z"/></g>
</svg>
