<?xml version="1.0" encoding="UTF-8"?>
<!DOCTYPE svg PUBLIC "-//W3C//DTD SVG 1.1//EN" "http://www.w3.org/Graphics/SVG/1.1/DTD/svg11.dtd">
<svg xmlns="http://www.w3.org/2000/svg" version="1.1" width="100px" height="100px" style="shape-rendering:geometricPrecision; text-rendering:geometricPrecision; image-rendering:optimizeQuality; fill-rule:evenodd; clip-rule:evenodd" xmlns:xlink="http://www.w3.org/1999/xlink">
<g><path style="opacity:0.016" fill="#616161" d="M 75.5,2.5 C 76.9217,2.70858 78.255,3.20858 79.5,4C 77.5,4.66667 75.5,4.66667 73.5,4C 74.4158,3.72158 75.0825,3.22158 75.5,2.5 Z"/></g>
<g><path style="opacity:0.991" fill="#777778" d="M 82.5,9.5 C 82.5,10.5 82.5,11.5 82.5,12.5C 81.6618,12.8417 81.3284,13.5084 81.5,14.5C 80.8333,14.5 80.5,14.8333 80.5,15.5C 78.283,16.3686 75.9496,16.702 73.5,16.5C 73.1583,15.6618 72.4916,15.3284 71.5,15.5C 69.2936,8.20734 71.9603,5.04068 79.5,6C 80.6364,7.14508 81.6364,8.31174 82.5,9.5 Z"/></g>
<g><path style="opacity:0.016" fill="#717171" d="M 82.5,9.5 C 82.369,8.76109 82.5357,8.09442 83,7.5C 83.6917,8.43677 83.525,9.10343 82.5,9.5 Z"/></g>
<g><path style="opacity:0.02" fill="#606060" d="M 68.5,8.5 C 69.6129,9.94639 69.7796,11.6131 69,13.5C 68.5065,11.8659 68.3398,10.1992 68.5,8.5 Z"/></g>
<g><path style="opacity:0.024" fill="#fc7e2d" d="M 44.5,11.5 C 48.3112,10.3547 52.3112,10.1881 56.5,11C 52.5138,11.4988 48.5138,11.6655 44.5,11.5 Z"/></g>
<g><path style="opacity:0.004" fill="#fefffe" d="M 83.5,10.5 C 84.8333,11.1667 84.8333,11.1667 83.5,10.5 Z"/></g>
<g><path style="opacity:0.02" fill="#eb6626" d="M 61.5,12.5 C 60.1266,12.6567 58.7932,12.49 57.5,12C 59.0657,11.235 60.3991,11.4017 61.5,12.5 Z"/></g>
<g><path style="opacity:0.004" fill="#2c3030" d="M 21.5,13.5 C 22.7927,12.3552 23.9593,12.6885 25,14.5C 26.8272,16.5861 26.8272,18.5861 25,20.5C 24.3828,19.5509 24.5494,18.7175 25.5,18C 24.9341,17.0053 24.2674,16.172 23.5,15.5C 23.5,14.8333 23.1667,14.5 22.5,14.5C 22.5,13.8333 22.1667,13.5 21.5,13.5 Z"/></g>
<g><path style="opacity:0.016" fill="#e76f2c" d="M 44.5,11.5 C 44.5,11.8333 44.5,12.1667 44.5,12.5C 42.901,12.2322 41.5676,12.5655 40.5,13.5C 39.209,13.2627 38.209,13.596 37.5,14.5C 35.6214,14.6068 35.2881,14.1068 36.5,13C 39.0627,11.9207 41.7294,11.4207 44.5,11.5 Z"/></g>
<g><path style="opacity:0.016" fill="#ff8a3a" d="M 61.5,13.5 C 61.5,13.1667 61.5,12.8333 61.5,12.5C 62.791,12.2627 63.791,12.596 64.5,13.5C 63.5,13.5 62.5,13.5 61.5,13.5 Z"/></g>
<g><path style="opacity:0.012" fill="#7f807f" d="M 82.5,12.5 C 83.8333,13.1667 83.8333,13.8333 82.5,14.5C 82.5,13.8333 82.5,13.1667 82.5,12.5 Z"/></g>
<g><path style="opacity:0.004" fill="#151515" d="M 15.5,15.5 C 14.8333,15.8333 14.1667,16.1667 13.5,16.5C 14.032,13.5404 14.6987,13.2071 15.5,15.5 Z"/></g>
<g><path style="opacity:0.995" fill="#f47826" d="M 44.5,12.5 C 50.1956,12.447 55.8623,12.7803 61.5,13.5C 63.8485,15.341 66.5152,16.6743 69.5,17.5C 69.8417,18.3382 70.5084,18.6716 71.5,18.5C 71.5,19.1667 71.8333,19.5 72.5,19.5C 72.5,20.1667 72.8333,20.5 73.5,20.5C 73.5,21.1667 73.8333,21.5 74.5,21.5C 74.5,22.1667 74.8333,22.5 75.5,22.5C 75.5,23.1667 75.8333,23.5 76.5,23.5C 76.5,24.1667 76.8333,24.5 77.5,24.5C 77.5,25.1667 77.8333,25.5 78.5,25.5C 80.5146,28.8691 82.5146,32.2024 84.5,35.5C 84.1583,36.3382 83.4916,36.6716 82.5,36.5C 81.0892,34.086 79.0892,32.4194 76.5,31.5C 76.5,30.8333 76.1667,30.5 75.5,30.5C 73.5739,28.7073 71.2406,27.7073 68.5,27.5C 67.791,26.596 66.791,26.2627 65.5,26.5C 60.9355,24.96 56.1021,24.2933 51,24.5C 47.3167,24.5014 43.8167,24.8348 40.5,25.5C 36.7144,25.32 33.381,26.32 30.5,28.5C 28.6203,28.2291 27.287,28.8958 26.5,30.5C 25.5084,30.3284 24.8417,30.6618 24.5,31.5C 22.9731,31.427 21.9731,32.0937 21.5,33.5C 20.8333,33.5 20.5,33.8333 20.5,34.5C 19.8333,34.5 19.5,34.8333 19.5,35.5C 18.8333,35.5 18.5,35.8333 18.5,36.5C 17.9033,36.2648 17.5699,35.7648 17.5,35C 18.9056,33.022 19.9056,30.8553 20.5,28.5C 21.1667,28.5 21.5,28.1667 21.5,27.5C 24.1667,24.1667 27.1667,21.1667 30.5,18.5C 31.1667,18.5 31.5,18.1667 31.5,17.5C 33.8185,17.0075 35.8185,16.0075 37.5,14.5C 38.791,14.7373 39.791,14.404 40.5,13.5C 42.099,13.7678 43.4324,13.4345 44.5,12.5 Z M 40.5,25.5 C 37.3811,26.8699 34.0477,27.8699 30.5,28.5C 33.381,26.32 36.7144,25.32 40.5,25.5 Z M 30.5,28.5 C 29.4863,29.6737 28.153,30.3404 26.5,30.5C 27.287,28.8958 28.6203,28.2291 30.5,28.5 Z M 24.5,31.5 C 24.1667,32.1667 23.8333,32.8333 23.5,33.5C 22.8333,33.5 22.1667,33.5 21.5,33.5C 21.9731,32.0937 22.9731,31.427 24.5,31.5 Z"/></g>
<g><path style="opacity:0.008" fill="#ff7f14" d="M 64.5,13.5 C 65.4916,13.3284 66.1583,13.6618 66.5,14.5C 65.5084,14.6716 64.8417,14.3382 64.5,13.5 Z"/></g>
<g><path style="opacity:0.024" fill="#d4802a" d="M 66.5,14.5 C 67.8333,15.1667 67.8333,15.1667 66.5,14.5 Z"/></g>
<g><path style="opacity:0.016" fill="#7f807f" d="M 81.5,14.5 C 81.8333,14.5 82.1667,14.5 82.5,14.5C 82.3147,15.1701 81.9813,15.1701 81.5,14.5 Z"/></g>
<g><path style="opacity:0.882" fill="#626363" d="M 21.5,13.5 C 22.1667,13.5 22.5,13.8333 22.5,14.5C 23.1667,14.5 23.5,14.8333 23.5,15.5C 24.3722,20.4585 22.3722,22.6252 17.5,22C 16.3636,20.8549 15.3636,19.6883 14.5,18.5C 15.1098,17.609 15.4431,16.609 15.5,15.5C 17.1417,13.9192 19.1417,13.2525 21.5,13.5 Z"/></g>
<g><path style="opacity:0.016" fill="#7f807f" d="M 80.5,15.5 C 80.8333,15.5 81.1667,15.5 81.5,15.5C 81.3147,16.1701 80.9813,16.1701 80.5,15.5 Z"/></g>
<g><path style="opacity:0.004" fill="#815839" d="M 71.5,15.5 C 71.8417,16.3382 72.5084,16.6716 73.5,16.5C 74.1667,17.1667 74.8333,17.8333 75.5,18.5C 74.5084,18.3284 73.8417,18.6618 73.5,19.5C 73.1667,19.5 72.8333,19.5 72.5,19.5C 71.8333,19.5 71.5,19.1667 71.5,18.5C 71.1583,17.6618 70.4916,17.3284 69.5,17.5C 69.8333,16.5 70.5,15.8333 71.5,15.5 Z"/></g>
<g><path style="opacity:0.012" fill="#f68b0f" d="M 31.5,17.5 C 30.8333,17.5 30.5,17.8333 30.5,18.5C 28.0248,18.2533 28.0248,17.5866 30.5,16.5C 31.1067,16.6236 31.44,16.9569 31.5,17.5 Z"/></g>
<g><path style="opacity:0.012" fill="#5e5e5e" d="M 75.5,19.5 C 75.5,19.1667 75.5,18.8333 75.5,18.5C 76.7382,17.5876 78.0715,17.4209 79.5,18C 78.255,18.7914 76.9217,19.2914 75.5,19.5 Z"/></g>
<g><path style="opacity:0.008" fill="#878787" d="M 13.5,16.5 C 13.3284,17.4916 13.6618,18.1583 14.5,18.5C 14.6068,20.3786 14.1068,20.7119 13,19.5C 12.2599,18.2506 12.4265,17.2506 13.5,16.5 Z"/></g>
<g><path style="opacity:0.02" fill="#ff8722" d="M 73.5,20.5 C 73.5,20.1667 73.5,19.8333 73.5,19.5C 74.1667,19.5 74.8333,19.5 75.5,19.5C 76.4577,20.9616 77.6244,22.2949 79,23.5C 79.6917,24.4368 79.525,25.1034 78.5,25.5C 77.8333,25.5 77.5,25.1667 77.5,24.5C 76.8333,24.5 76.5,24.1667 76.5,23.5C 75.8333,23.5 75.5,23.1667 75.5,22.5C 74.8333,22.5 74.5,22.1667 74.5,21.5C 73.8333,21.5 73.5,21.1667 73.5,20.5 Z"/></g>
<g><path style="opacity:0.004" fill="#ffca29" d="M 21.5,27.5 C 20.8333,27.5 20.5,27.8333 20.5,28.5C 19.2875,27.5029 19.4542,26.5029 21,25.5C 21.4643,26.0944 21.631,26.7611 21.5,27.5 Z"/></g>
<g><path style="opacity:0.02" fill="#ff8021" d="M 65.5,26.5 C 66.209,27.404 67.209,27.7373 68.5,27.5C 68.9175,28.2216 69.5842,28.7216 70.5,29C 67.4302,28.9846 64.4302,28.3179 61.5,27C 62.7932,26.51 64.1266,26.3433 65.5,26.5 Z"/></g>
<g><path style="opacity:0.008" fill="#f89b19" d="M 75.5,30.5 C 76.1667,30.5 76.5,30.8333 76.5,31.5C 75.5029,32.7125 74.5029,32.5458 73.5,31C 74.0944,30.5357 74.7611,30.369 75.5,30.5 Z"/></g>
<g><path style="opacity:0.008" fill="#fe8000" d="M 15.5,33.5 C 16.525,33.8966 16.6917,34.5632 16,35.5C 15.5357,34.9056 15.369,34.2389 15.5,33.5 Z"/></g>
<g><path style="opacity:0.004" fill="#fc730e" d="M 21.5,33.5 C 22.1667,33.5 22.8333,33.5 23.5,33.5C 22.7377,35.2624 21.4044,36.2624 19.5,36.5C 19.5,36.1667 19.5,35.8333 19.5,35.5C 20.1667,35.5 20.5,35.1667 20.5,34.5C 21.1667,34.5 21.5,34.1667 21.5,33.5 Z"/></g>
<g><path style="opacity:0.004" fill="#ff3b0a" d="M 84.5,35.5 C 84.5109,32.9991 85.1776,32.8324 86.5,35C 85.9056,35.4643 85.2389,35.631 84.5,35.5 Z"/></g>
<g><path style="opacity:0.004" fill="#feff00" d="M 18.5,36.5 C 18.8333,36.5 19.1667,36.5 19.5,36.5C 19.3147,37.1701 18.9813,37.1701 18.5,36.5 Z"/></g>
<g><path style="opacity:0.008" fill="#fe8000" d="M 82.5,36.5 C 82.5,36.8333 82.5,37.1667 82.5,37.5C 81.8299,37.0187 81.8299,36.6853 82.5,36.5 Z"/></g>
<g><path style="opacity:0.004" fill="#fe0000" d="M 18.5,37.5 C 17.8333,38.1667 17.8333,38.1667 18.5,37.5 Z"/></g>
<g><path style="opacity:0.004" fill="#fe0000" d="M 82.5,37.5 C 83.8333,38.1667 83.8333,38.1667 82.5,37.5 Z"/></g>
<g><path style="opacity:0.004" fill="#fe0000" d="M 17.5,56.5 C 18.8333,57.1667 18.8333,57.1667 17.5,56.5 Z"/></g>
<g><path style="opacity:0.004" fill="#fe0000" d="M 82.5,56.5 C 83.8333,57.1667 83.8333,57.1667 82.5,56.5 Z"/></g>
<g><path style="opacity:0.004" fill="#feff00" d="M 82.5,57.5 C 81.8333,58.1667 81.8333,58.1667 82.5,57.5 Z"/></g>
<g><path style="opacity:0.016" fill="#fe803f" d="M 83.5,58.5 C 84.8333,59.1667 84.8333,59.1667 83.5,58.5 Z"/></g>
<g><path style="opacity:0.004" fill="#fe0000" d="M 85.5,59.5 C 86.8333,60.1667 86.8333,60.1667 85.5,59.5 Z"/></g>
<g><path style="opacity:0.008" fill="#d582ff" d="M 16.5,61.5 C 15.475,61.1034 15.3083,60.4368 16,59.5C 16.4643,60.0944 16.631,60.7611 16.5,61.5 Z"/></g>
<g><path style="opacity:0.024" fill="#fe802a" d="M 85.5,60.5 C 84.8333,61.1667 84.8333,61.1667 85.5,60.5 Z"/></g>
<g><path style="opacity:0.012" fill="#ff6412" d="M 16.5,61.5 C 16.8333,61.5 17.1667,61.5 17.5,61.5C 17.5,62.1667 17.5,62.8333 17.5,63.5C 16.6618,63.1583 16.3284,62.4916 16.5,61.5 Z"/></g>
<g><path style="opacity:0.02" fill="#dd6127" d="M 83.5,61.5 C 83.8333,61.5 84.1667,61.5 84.5,61.5C 84.6716,62.4916 84.3382,63.1583 83.5,63.5C 83.5,62.8333 83.5,62.1667 83.5,61.5 Z"/></g>
<g><path style="opacity:0.012" fill="#fe5500" d="M 82.5,63.5 C 82.8333,63.5 83.1667,63.5 83.5,63.5C 83.6716,64.4916 83.3382,65.1583 82.5,65.5C 82.5,64.8333 82.5,64.1667 82.5,63.5 Z"/></g>
<g><path style="opacity:0.016" fill="#c25225" d="M 17.5,63.5 C 17.8333,63.5 18.1667,63.5 18.5,63.5C 18.5,64.1667 18.8333,64.5 19.5,64.5C 18.6987,66.7929 18.032,66.4596 17.5,63.5 Z"/></g>
<g><path style="opacity:0.012" fill="#ff641c" d="M 81.5,65.5 C 81.8333,65.5 82.1667,65.5 82.5,65.5C 82.6716,66.4916 82.3382,67.1583 81.5,67.5C 81.5,66.8333 81.5,66.1667 81.5,65.5 Z"/></g>
<g><path style="opacity:0.02" fill="#fe6632" d="M 80.5,67.5 C 80.8333,67.5 81.1667,67.5 81.5,67.5C 81.3147,68.1701 80.9813,68.1701 80.5,67.5 Z"/></g>
<g><path style="opacity:0.996" fill="#f47826" d="M 21.5,61.5 C 21.5,62.1667 21.8333,62.5 22.5,62.5C 22.8417,63.3382 23.5084,63.6716 24.5,63.5C 24.9731,64.9063 25.9731,65.573 27.5,65.5C 28.7804,66.9313 30.4471,67.5979 32.5,67.5C 33.209,68.404 34.209,68.7373 35.5,68.5C 36.5676,69.4345 37.901,69.7678 39.5,69.5C 46.6397,71.9485 53.973,72.1151 61.5,70C 66.6116,69.0239 71.2783,67.1906 75.5,64.5C 76.4916,64.6716 77.1583,64.3382 77.5,63.5C 78.1667,63.5 78.5,63.1667 78.5,62.5C 79.1667,62.5 79.5,62.1667 79.5,61.5C 80.8333,61.5 81.5,60.8333 81.5,59.5C 82.1667,59.5 82.8333,59.5 83.5,59.5C 83.5,60.1667 83.5,60.8333 83.5,61.5C 82.6618,61.8417 82.3284,62.5084 82.5,63.5C 81.6618,63.8417 81.3284,64.5084 81.5,65.5C 80.6618,65.8417 80.3284,66.5084 80.5,67.5C 79.8333,67.5 79.5,67.8333 79.5,68.5C 78.8333,68.5 78.5,68.8333 78.5,69.5C 77.8333,69.5 77.5,69.8333 77.5,70.5C 75.8333,71.5 74.5,72.8333 73.5,74.5C 72.8333,74.5 72.5,74.8333 72.5,75.5C 71.8333,75.5 71.5,75.8333 71.5,76.5C 70.5084,76.3284 69.8417,76.6618 69.5,77.5C 68.8333,77.5 68.5,77.8333 68.5,78.5C 67.5084,78.3284 66.8417,78.6618 66.5,79.5C 65.5084,79.3284 64.8417,79.6618 64.5,80.5C 63.209,80.2627 62.209,80.596 61.5,81.5C 59.901,81.2322 58.5676,81.5655 57.5,82.5C 52.8333,82.5 48.1667,82.5 43.5,82.5C 42.4324,81.5655 41.099,81.2322 39.5,81.5C 39.1583,80.6618 38.4916,80.3284 37.5,80.5C 29.9363,76.9369 23.9363,71.6035 19.5,64.5C 18.8333,64.5 18.5,64.1667 18.5,63.5C 18.6716,62.5084 18.3382,61.8417 17.5,61.5C 17.3505,60.448 17.5172,59.448 18,58.5C 19.0391,59.7101 20.2058,60.7101 21.5,61.5 Z M 24.5,63.5 C 25.1667,63.5 25.8333,63.5 26.5,63.5C 26.8333,64.1667 27.1667,64.8333 27.5,65.5C 25.9731,65.573 24.9731,64.9063 24.5,63.5 Z M 81.5,59.5 C 81.5,60.8333 80.8333,61.5 79.5,61.5C 79.8333,60.5 80.5,59.8333 81.5,59.5 Z"/></g>
<g><path style="opacity:0.02" fill="#f6841f" d="M 39.5,68.5 C 38.1667,68.5 36.8333,68.5 35.5,68.5C 34.791,67.596 33.791,67.2627 32.5,67.5C 32.0825,66.7784 31.4158,66.2784 30.5,66C 33.7855,65.9302 36.7855,66.7635 39.5,68.5 Z"/></g>
<g><path style="opacity:0.02" fill="#ff6220" d="M 26.5,63.5 C 29.4596,64.032 29.7929,64.6987 27.5,65.5C 27.1667,64.8333 26.8333,64.1667 26.5,63.5 Z"/></g>
<g><path style="opacity:0.02" fill="#da5324" d="M 78.5,62.5 C 77.8333,62.5 77.5,62.8333 77.5,63.5C 76.5084,63.3284 75.8417,63.6618 75.5,64.5C 73.6214,64.6068 73.2881,64.1068 74.5,63C 75.9456,61.702 77.2789,61.5354 78.5,62.5 Z"/></g>
<g><path style="opacity:0.012" fill="#ff5804" d="M 21.5,61.5 C 22.4971,60.2875 23.4971,60.4542 24.5,62C 23.9056,62.4643 23.2389,62.631 22.5,62.5C 21.8333,62.5 21.5,62.1667 21.5,61.5 Z"/></g>
<g><path style="opacity:0.02" fill="#ff8121" d="M 39.5,69.5 C 39.5,69.1667 39.5,68.8333 39.5,68.5C 51.5,68.8333 51.5,69.1667 39.5,69.5 Z"/></g>
<g><path style="opacity:0.024" fill="#d4802a" d="M 79.5,68.5 C 79.8333,68.5 80.1667,68.5 80.5,68.5C 80.3147,69.1701 79.9813,69.1701 79.5,68.5 Z"/></g>
<g><path style="opacity:0.008" fill="#ff7815" d="M 78.5,69.5 C 78.8333,69.5 79.1667,69.5 79.5,69.5C 78.968,72.4596 78.3013,72.7929 77.5,70.5C 78.1667,70.5 78.5,70.1667 78.5,69.5 Z"/></g>
<g><path style="opacity:0.004" fill="#ee470d" d="M 73.5,74.5 C 75.7929,75.3013 75.4596,75.968 72.5,76.5C 72.5,76.1667 72.5,75.8333 72.5,75.5C 73.1667,75.5 73.5,75.1667 73.5,74.5 Z"/></g>
<g><path style="opacity:0.024" fill="#fe802a" d="M 71.5,76.5 C 71.8333,76.5 72.1667,76.5 72.5,76.5C 72.3147,77.1701 71.9813,77.1701 71.5,76.5 Z"/></g>
<g><path style="opacity:0.012" fill="#9e9e9e" d="M 27.5,79.5 C 25.7078,78.6909 23.7078,78.1909 21.5,78C 24.275,76.3461 26.9417,76.6794 29.5,79C 28.9056,79.4643 28.2389,79.631 27.5,79.5 Z"/></g>
<g><path style="opacity:0.004" fill="#f7b42a" d="M 69.5,77.5 C 70.1667,77.5 70.8333,77.5 71.5,77.5C 71.0269,78.9063 70.0269,79.573 68.5,79.5C 68.5,79.1667 68.5,78.8333 68.5,78.5C 69.1667,78.5 69.5,78.1667 69.5,77.5 Z"/></g>
<g><path style="opacity:0.908" fill="#a0a0a0" d="M 27.5,79.5 C 28.795,80.4884 30.1283,81.4884 31.5,82.5C 31.5,85.1667 31.5,87.8333 31.5,90.5C 30.8333,90.5 30.5,90.8333 30.5,91.5C 29.8333,91.5 29.5,91.8333 29.5,92.5C 28.5084,92.3284 27.8417,92.6618 27.5,93.5C 25.0504,93.702 22.717,93.3686 20.5,92.5C 20.5,91.8333 20.1667,91.5 19.5,91.5C 19.5,90.8333 19.1667,90.5 18.5,90.5C 17.1667,87.8333 17.1667,85.1667 18.5,82.5C 19.1667,82.5 19.5,82.1667 19.5,81.5C 20.1667,81.5 20.5,81.1667 20.5,80.5C 22.717,79.6314 25.0504,79.298 27.5,79.5 Z"/></g>
<g><path style="opacity:0.004" fill="#ff3714" d="M 66.5,80.5 C 66.5,80.1667 66.5,79.8333 66.5,79.5C 67.1667,79.5 67.8333,79.5 68.5,79.5C 68.1583,80.3382 67.4916,80.6716 66.5,80.5 Z"/></g>
<g><path style="opacity:0.012" fill="#c5620f" d="M 64.5,81.5 C 64.5,81.1667 64.5,80.8333 64.5,80.5C 65.1667,80.5 65.8333,80.5 66.5,80.5C 66.1583,81.3382 65.4916,81.6716 64.5,81.5 Z"/></g>
<g><path style="opacity:0.012" fill="#797979" d="M 20.5,80.5 C 19.8333,80.5 19.5,80.8333 19.5,81.5C 18.8333,81.5 18.5,81.8333 18.5,82.5C 16.8947,83.9687 16.3947,83.6354 17,81.5C 18.0407,79.6885 19.2073,79.3552 20.5,80.5 Z"/></g>
<g><path style="opacity:0.016" fill="#bebfbe" d="M 32.5,82.5 C 31.8333,81.1667 31.8333,81.1667 32.5,82.5 Z"/></g>
<g><path style="opacity:0.016" fill="#ffa134" d="M 37.5,80.5 C 37.8417,81.3382 38.5084,81.6716 39.5,81.5C 39.5,81.8333 39.5,82.1667 39.5,82.5C 37.8967,82.6882 36.5634,82.1882 35.5,81C 36.0944,80.5357 36.7611,80.369 37.5,80.5 Z"/></g>
<g><path style="opacity:0.012" fill="#8a8a8a" d="M 32.5,82.5 C 33.5735,83.2506 33.7401,84.2506 33,85.5C 32.5172,84.552 32.3505,83.552 32.5,82.5 Z"/></g>
<g><path style="opacity:0.012" fill="#ff6714" d="M 39.5,82.5 C 40.8333,82.5 42.1667,82.5 43.5,82.5C 42.1667,83.8333 40.8333,83.8333 39.5,82.5 Z"/></g>
<g><path style="opacity:0.008" fill="#ff8218" d="M 61.5,81.5 C 62.5,81.5 63.5,81.5 64.5,81.5C 62.5615,83.1628 60.2282,83.8294 57.5,83.5C 57.5,83.1667 57.5,82.8333 57.5,82.5C 59.099,82.7678 60.4324,82.4345 61.5,81.5 Z"/></g>
<g><path style="opacity:0.024" fill="#e77727" d="M 57.5,83.5 C 53.3537,84.647 49.0204,84.8136 44.5,84C 48.8206,83.501 53.1539,83.3343 57.5,83.5 Z"/></g>
<g><path style="opacity:0.012" fill="#8a8a8a" d="M 32.5,90.5 C 32.3505,89.448 32.5172,88.448 33,87.5C 33.7401,88.7494 33.5735,89.7494 32.5,90.5 Z"/></g>
<g><path style="opacity:0.016" fill="#bebfbe" d="M 31.5,90.5 C 31.8333,90.5 32.1667,90.5 32.5,90.5C 32.3147,91.1701 31.9813,91.1701 31.5,90.5 Z"/></g>
<g><path style="opacity:0.005" fill="#c2c2c2" d="M 18.5,90.5 C 19.1667,90.5 19.5,90.8333 19.5,91.5C 20.1667,91.5 20.5,91.8333 20.5,92.5C 18.732,93.5075 17.3987,92.8408 16.5,90.5C 16.9698,89.537 17.6365,89.537 18.5,90.5 Z"/></g>
<g><path style="opacity:0.016" fill="#bebfbe" d="M 30.5,91.5 C 30.8333,91.5 31.1667,91.5 31.5,91.5C 31.3147,92.1701 30.9813,92.1701 30.5,91.5 Z"/></g>
<g><path style="opacity:0.016" fill="#bebfbe" d="M 29.5,92.5 C 29.8333,92.5 30.1667,92.5 30.5,92.5C 30.3147,93.1701 29.9813,93.1701 29.5,92.5 Z"/></g>
<g><path style="opacity:0.012" fill="#9b9b9b" d="M 27.5,94.5 C 27.5,94.1667 27.5,93.8333 27.5,93.5C 28.1667,93.5 28.8333,93.5 29.5,93.5C 29.1583,94.3382 28.4916,94.6716 27.5,94.5 Z"/></g>
<g><path style="opacity:0.024" fill="#9f9f9f" d="M 27.5,94.5 C 25.7116,95.6225 23.7116,95.7891 21.5,95C 23.4727,94.5045 25.4727,94.3379 27.5,94.5 Z"/></g>
</svg>
