<?xml version="1.0" encoding="UTF-8"?>
<!DOCTYPE svg PUBLIC "-//W3C//DTD SVG 1.1//EN" "http://www.w3.org/Graphics/SVG/1.1/DTD/svg11.dtd">
<svg xmlns="http://www.w3.org/2000/svg" version="1.1" width="100px" height="100px" style="shape-rendering:geometricPrecision; text-rendering:geometricPrecision; image-rendering:optimizeQuality; fill-rule:evenodd; clip-rule:evenodd" xmlns:xlink="http://www.w3.org/1999/xlink">
<g><path style="opacity:1" fill="#31586b" d="M 3.5,63.5 C 3.40206,61.4471 4.06873,59.7804 5.5,58.5C 12.7389,83.5611 29.4056,95.0611 55.5,93C 78.803,87.8615 91.1364,73.3615 92.5,49.5C 89.2463,23.5802 74.5796,9.58024 48.5,7.5C 24.6358,8.91082 10.3025,21.2442 5.5,44.5C 4.88468,49.0944 4.05135,53.7611 3,58.5C 2.50058,52.8431 2.33391,47.1764 2.5,41.5C 7.54791,20.2886 20.8812,7.7886 42.5,4C 66.0848,2.37284 82.9182,12.2062 93,33.5C 100.154,57.6851 93.3209,76.8518 72.5,91C 49.8186,101.803 29.652,98.3033 12,80.5C 8.09562,75.3579 5.26229,69.6912 3.5,63.5 Z"/></g>
<g><path style="opacity:1" fill="#ece9e8" d="M 5.5,58.5 C 5.5,53.8333 5.5,49.1667 5.5,44.5C 10.3025,21.2442 24.6358,8.91082 48.5,7.5C 74.5796,9.58024 89.2463,23.5802 92.5,49.5C 91.1364,73.3615 78.803,87.8615 55.5,93C 29.4056,95.0611 12.7389,83.5611 5.5,58.5 Z"/></g>
<g><path style="opacity:1" fill="#e87816" d="M 87.5,58.5 C 87.8333,58.5 88.1667,58.5 88.5,58.5C 83.6248,77.8823 71.2915,88.3823 51.5,90C 61.0827,84.6691 65.2493,76.5024 64,65.5C 61.684,56.6847 56.184,51.0181 47.5,48.5C 48.9264,47.6588 50.2597,46.6588 51.5,45.5C 53.7217,48.2714 55.5551,47.938 57,44.5C 58.0154,47.0629 59.5154,48.3962 61.5,48.5C 59.8333,45.8333 58.1667,43.1667 56.5,40.5C 55.0653,41.8237 54.0653,43.4904 53.5,45.5C 52.2666,41.6668 52.2666,37.8335 53.5,34C 51.39,29.4425 49.0566,24.9425 46.5,20.5C 54.6585,20.6601 61.4919,23.9934 67,30.5C 69.2308,35.2941 71.7308,39.9607 74.5,44.5C 77.7789,45.4728 80.7789,46.9728 83.5,49C 76.4533,49.6879 75.7866,52.0212 81.5,56C 83.5873,56.7922 85.4207,57.9588 87,59.5C 87.3988,59.2716 87.5654,58.9382 87.5,58.5 Z"/></g>
<g><path style="opacity:1" fill="#fbe4d7" d="M 87.5,58.5 C 87.5654,58.9382 87.3988,59.2716 87,59.5C 85.4207,57.9588 83.5873,56.7922 81.5,56C 75.7866,52.0212 76.4533,49.6879 83.5,49C 80.7789,46.9728 77.7789,45.4728 74.5,44.5C 71.7308,39.9607 69.2308,35.2941 67,30.5C 61.4919,23.9934 54.6585,20.6601 46.5,20.5C 49.0566,24.9425 51.39,29.4425 53.5,34C 52.2666,37.8335 52.2666,41.6668 53.5,45.5C 54.0653,43.4904 55.0653,41.8237 56.5,40.5C 58.1667,43.1667 59.8333,45.8333 61.5,48.5C 59.5154,48.3962 58.0154,47.0629 57,44.5C 55.5551,47.938 53.7217,48.2714 51.5,45.5C 50.1998,41.6658 50.1998,37.8325 51.5,34C 49.1095,28.9758 46.4428,24.1425 43.5,19.5C 55.0947,17.5343 64.2613,21.8676 71,32.5C 72.1392,35.5833 73.4725,38.5833 75,41.5C 79.1149,43.9476 82.9482,46.7809 86.5,50C 84.7148,51.1628 82.7148,51.8295 80.5,52C 83.2879,53.7186 85.6212,55.8852 87.5,58.5 Z"/></g>
<g><path style="opacity:1" fill="#184d61" d="M 52.5,85.5 C 51.2905,85.0679 50.2905,84.4013 49.5,83.5C 51.9484,83.9899 53.615,83.1566 54.5,81C 51.6666,76.868 49.4999,72.368 48,67.5C 47.7408,65.0095 47.9075,62.5095 48.5,60C 48.6008,56.7 47.2675,54.2 44.5,52.5C 43.0295,53.3805 42.1962,54.7139 42,56.5C 40.907,54.6508 39.5737,52.9842 38,51.5C 38.9789,54.4751 40.3122,57.4751 42,60.5C 43.7398,59.2842 44.7398,57.6175 45,55.5C 46.7836,59.0068 46.9502,62.6734 45.5,66.5C 47.4484,71.336 49.7817,76.0026 52.5,80.5C 38.9049,79.4431 30.0716,72.1097 26,58.5C 22.4228,55.6267 18.5894,53.1267 14.5,51C 16.9519,50.7105 19.2852,50.0438 21.5,49C 18.2747,45.8071 14.7747,42.9737 11,40.5C 11.0579,42.4354 11.8912,44.1021 13.5,45.5C 12.1751,46.9526 11.3418,46.6192 11,44.5C 11.803,49.5909 11.303,54.5909 9.5,59.5C 5.38367,36.9121 14.0503,21.0787 35.5,12C 38.7675,10.7873 42.1008,10.454 45.5,11C 32.9089,19.1671 30.0756,30.0004 37,43.5C 41.2492,48.3731 46.4158,51.8731 52.5,54C 60.9952,61.3256 62.8285,70.1589 58,80.5C 56.2962,82.3734 54.4628,84.0401 52.5,85.5 Z"/></g>
<g><path style="opacity:1" fill="#e87918" d="M 88.5,58.5 C 88.1667,58.5 87.8333,58.5 87.5,58.5C 85.6212,55.8852 83.2879,53.7186 80.5,52C 82.7148,51.8295 84.7148,51.1628 86.5,50C 82.9482,46.7809 79.1149,43.9476 75,41.5C 73.4725,38.5833 72.1392,35.5833 71,32.5C 64.2613,21.8676 55.0947,17.5343 43.5,19.5C 46.4428,24.1425 49.1095,28.9758 51.5,34C 50.1998,37.8325 50.1998,41.6658 51.5,45.5C 50.2597,46.6588 48.9264,47.6588 47.5,48.5C 36.1298,41.2107 33.6298,31.544 40,19.5C 45.0778,13.208 51.5778,10.708 59.5,12C 81.7258,19.6106 91.3924,35.1106 88.5,58.5 Z"/></g>
<g><path style="opacity:1" fill="#f8d8c5" d="M 53.5,24.5 C 55.337,24.6395 55.6704,25.3061 54.5,26.5C 53.7025,26.0431 53.3691,25.3764 53.5,24.5 Z"/></g>
<g><path style="opacity:1" fill="#dde2e4" d="M 49.5,83.5 C 36.4016,80.0738 27.735,71.7405 23.5,58.5C 19.2637,56.5551 15.5971,53.8884 12.5,50.5C 14.5,49.6667 16.5,48.8333 18.5,48C 16.9221,46.9055 15.2554,46.0722 13.5,45.5C 11.8912,44.1021 11.0579,42.4354 11,40.5C 14.7747,42.9737 18.2747,45.8071 21.5,49C 19.2852,50.0438 16.9519,50.7105 14.5,51C 18.5894,53.1267 22.4228,55.6267 26,58.5C 30.0716,72.1097 38.9049,79.4431 52.5,80.5C 49.7817,76.0026 47.4484,71.336 45.5,66.5C 46.9502,62.6734 46.7836,59.0068 45,55.5C 44.7398,57.6175 43.7398,59.2842 42,60.5C 40.3122,57.4751 38.9789,54.4751 38,51.5C 39.5737,52.9842 40.907,54.6508 42,56.5C 42.1962,54.7139 43.0295,53.3805 44.5,52.5C 47.2675,54.2 48.6008,56.7 48.5,60C 47.9075,62.5095 47.7408,65.0095 48,67.5C 49.4999,72.368 51.6666,76.868 54.5,81C 53.615,83.1566 51.9484,83.9899 49.5,83.5 Z"/></g>
<g><path style="opacity:1" fill="#194e61" d="M 13.5,45.5 C 15.2554,46.0722 16.9221,46.9055 18.5,48C 16.5,48.8333 14.5,49.6667 12.5,50.5C 15.5971,53.8884 19.2637,56.5551 23.5,58.5C 27.735,71.7405 36.4016,80.0738 49.5,83.5C 50.2905,84.4013 51.2905,85.0679 52.5,85.5C 44.2201,90.834 35.8868,90.6673 27.5,85C 17.8174,79.1429 11.8174,70.6429 9.5,59.5C 11.303,54.5909 11.803,49.5909 11,44.5C 11.3418,46.6192 12.1751,46.9526 13.5,45.5 Z"/></g>
<g><path style="opacity:1" fill="#627f8b" d="M 2.5,41.5 C 2.33391,47.1764 2.50058,52.8431 3,58.5C 4.05135,53.7611 4.88468,49.0944 5.5,44.5C 5.5,49.1667 5.5,53.8333 5.5,58.5C 4.06873,59.7804 3.40206,61.4471 3.5,63.5C 1.98302,59.4405 1.31635,55.1071 1.5,50.5C 1.50199,47.3138 1.83533,44.3138 2.5,41.5 Z"/></g>
<g><path style="opacity:1" fill="#b4c0c5" d="M 43.5,73.5 C 45.332,74.1405 45.6653,75.1405 44.5,76.5C 43.6143,75.675 43.281,74.675 43.5,73.5 Z"/></g>
</svg>
