<?xml version="1.0" standalone="no"?>
<!DOCTYPE svg PUBLIC "-//W3C//DTD SVG 20010904//EN"
 "http://www.w3.org/TR/2001/REC-SVG-20010904/DTD/svg10.dtd">
<svg version="1.0" xmlns="http://www.w3.org/2000/svg"
 width="225.000000pt" height="225.000000pt" viewBox="0 0 225.000000 225.000000"
 preserveAspectRatio="xMidYMid meet">

<g transform="translate(0.000000,225.000000) scale(0.100000,-0.100000)"
fill="#000000" stroke="none">
<path d="M1085 2025 c-11 -2 -50 -7 -87 -10 -38 -4 -68 -10 -68 -15 0 -4 12
-15 26 -25 24 -15 30 -15 102 1 149 33 180 42 147 43 -16 1 -46 3 -65 5 -19 2
-44 3 -55 1z"/>
<path d="M1140 1984 c-58 -13 -116 -26 -130 -30 -21 -5 3 -20 148 -93 95 -48
197 -95 226 -105 119 -37 178 -170 127 -288 -19 -46 -84 -111 -121 -123 -19
-6 -16 -9 27 -29 127 -59 167 -196 96 -329 -49 -89 -146 -146 -280 -163 l-53
-7 0 55 0 55 55 6 c112 11 174 72 176 172 3 94 -51 143 -166 153 l-65 5 0 48
c0 48 0 48 38 55 117 22 182 85 182 175 0 52 -30 102 -70 119 -28 11 -134 9
-146 -3 -3 -2 -7 -27 -11 -56 l-6 -51 -38 0 -39 0 0 94 0 93 58 17 c32 9 83
16 113 16 l54 1 -175 88 c-96 49 -178 86 -182 82 -4 -3 -28 -46 -54 -96 -25
-49 -81 -148 -124 -220 -103 -174 -180 -305 -180 -308 0 -2 16 -21 36 -43 96
-104 155 -174 148 -173 -5 0 -49 45 -98 100 -49 54 -90 98 -92 96 -1 -1 4 -44
10 -95 8 -60 17 -96 26 -102 8 -6 43 -10 77 -10 34 0 65 -4 68 -10 4 -6 -24
-7 -76 -3 l-81 6 6 -39 c17 -108 56 -458 51 -462 -3 -3 -5 -2 -5 2 0 24 -63
492 -66 496 -3 2 -26 7 -52 11 l-47 6 51 2 51 1 -8 48 c-4 26 -8 67 -8 92 -1
27 -5 40 -10 35 -5 -6 -34 -59 -65 -120 -40 -80 -70 -161 -110 -300 l-55 -190
26 -44 c14 -24 57 -77 96 -118 54 -57 76 -73 92 -70 11 3 31 8 45 11 14 4 9
-1 -13 -11 l-38 -18 64 -42 c143 -94 286 -141 458 -150 160 -8 333 30 467 103
34 18 62 32 62 30 0 -8 81 65 160 144 171 171 252 369 253 620 0 144 -22 253
-77 373 l-33 74 -208 67 c-114 37 -205 70 -202 72 4 5 371 -112 392 -124 6 -4
2 7 -9 23 -117 185 -284 313 -494 379 -99 31 -115 31 -252 0z m-70 -994 c0
-288 3 -372 13 -375 6 -2 38 -6 70 -10 l57 -6 0 -45 0 -44 -215 0 -215 0 0 39
c0 22 4 42 9 45 5 4 37 9 70 12 l61 7 0 317 0 318 -57 7 c-31 4 -62 9 -70 12
-13 5 -19 74 -6 86 3 4 69 7 145 7 l138 0 0 -370z m575 225 c54 -132 58 -142
46 -130 -6 6 -29 55 -52 110 -55 134 -54 132 -41 120 5 -5 27 -50 47 -100z
m-864 -376 c-60 -292 -76 -355 -79 -324 -2 17 9 87 23 155 79 379 80 385 83
349 2 -20 -10 -101 -27 -180z m430 -360 c8 -5 -62 -9 -166 -9 -99 0 -218 -2
-265 -5 -84 -5 -85 -5 -40 9 51 15 448 20 471 5z"/>
<path d="M809 1967 c-177 -68 -332 -192 -437 -350 -54 -82 -61 -101 -38 -110
7 -3 69 -44 136 -92 67 -47 124 -84 125 -83 2 2 24 40 49 86 98 175 137 242
224 387 l90 150 -27 22 c-14 13 -28 23 -31 23 -3 -1 -44 -15 -91 -33z"/>
<path d="M281 1444 c-23 -62 -25 -58 37 -135 l45 -56 104 34 c56 19 103 38
103 41 0 6 -80 60 -104 71 -6 2 -41 26 -80 52 -39 27 -73 49 -77 49 -3 0 -16
-25 -28 -56z"/>
<path d="M239 1290 c-7 -38 -10 -73 -7 -76 6 -5 89 20 110 32 7 5 -66 106 -82
112 -4 2 -14 -29 -21 -68z"/>
<path d="M468 1273 c-98 -40 -97 -35 -29 -117 34 -40 42 -45 47 -30 3 11 23
53 45 96 21 42 39 79 39 82 0 9 -9 6 -102 -31z"/>
<path d="M285 1206 l-60 -23 -3 -47 -3 -47 113 5 c80 4 101 3 73 -4 -22 -5
-62 -9 -90 -10 -92 -1 -92 -2 -83 -78 4 -37 17 -97 28 -134 27 -89 78 -196 85
-177 21 57 115 387 115 403 0 24 -86 136 -103 135 -7 0 -39 -10 -72 -23z"/>
</g>
</svg>
