<?xml version="1.0" encoding="UTF-8"?>
<!DOCTYPE svg PUBLIC "-//W3C//DTD SVG 1.1//EN" "http://www.w3.org/Graphics/SVG/1.1/DTD/svg11.dtd">
<svg xmlns="http://www.w3.org/2000/svg" version="1.1" width="100px" height="100px" style="shape-rendering:geometricPrecision; text-rendering:geometricPrecision; image-rendering:optimizeQuality; fill-rule:evenodd; clip-rule:evenodd" xmlns:xlink="http://www.w3.org/1999/xlink">
<g><path style="opacity:0.012" fill="#4d64a8" d="M 40.5,4.5 C 45.9846,3.3483 51.6513,3.18163 57.5,4C 51.8431,4.49942 46.1764,4.66609 40.5,4.5 Z"/></g>
<g><path style="opacity:0.004" fill="#4fc8ff" d="M 35.5,5.5 C 36.2506,4.42654 37.2506,4.25988 38.5,5C 37.552,5.48278 36.552,5.64945 35.5,5.5 Z"/></g>
<g><path style="opacity:0.004" fill="#5792ff" d="M 59.5,5.5 C 60.2506,4.42654 61.2506,4.25988 62.5,5C 61.552,5.48278 60.552,5.64945 59.5,5.5 Z"/></g>
<g><path style="opacity:0.956" fill="#3774a8" d="M 66.5,9.5 C 66.7284,10.6694 66.2284,12.0028 65,13.5C 61,17.5 57,21.5 53,25.5C 52.5172,26.448 52.3505,27.448 52.5,28.5C 50.901,28.7678 49.5676,28.4345 48.5,27.5C 41.6866,26.5088 34.6866,26.1755 27.5,26.5C 27.3343,22.1539 27.501,17.8206 28,13.5C 29.5629,10.2716 32.0629,8.10491 35.5,7C 43.1016,5.47723 50.7682,5.1439 58.5,6C 61.5994,6.38743 64.266,7.5541 66.5,9.5 Z M 39.5,14.5 C 38.209,14.2627 37.209,14.596 36.5,15.5C 35.596,16.209 35.2627,17.209 35.5,18.5C 34.4017,17.3991 34.235,16.0657 35,14.5C 36.6155,13.1991 38.1155,13.1991 39.5,14.5 Z M 36.5,15.5 C 38.337,15.6395 38.6704,16.3061 37.5,17.5C 36.7025,17.0431 36.3691,16.3764 36.5,15.5 Z"/></g>
<g><path style="opacity:0.008" fill="#00807f" d="M 26.5,11.5 C 27.8333,12.1667 27.8333,12.1667 26.5,11.5 Z"/></g>
<g><path style="opacity:0.004" fill="#3845d4" d="M 72.5,14.5 C 72.1667,14.5 71.8333,14.5 71.5,14.5C 71.8333,11.8333 72.1667,11.8333 72.5,14.5 Z"/></g>
<g><path style="opacity:0.012" fill="#507faa" d="M 39.5,14.5 C 39.5,15.8333 39.5,17.1667 39.5,18.5C 38.1667,18.5 36.8333,18.5 35.5,18.5C 35.2627,17.209 35.596,16.209 36.5,15.5C 37.209,14.596 38.209,14.2627 39.5,14.5 Z M 36.5,15.5 C 36.3691,16.3764 36.7025,17.0431 37.5,17.5C 38.6704,16.3061 38.337,15.6395 36.5,15.5 Z"/></g>
<g><path style="opacity:0.004" fill="#21105a" d="M 25.5,13.5 C 26.4849,17.6344 26.8182,21.9677 26.5,26.5C 23.4816,26.6646 20.4816,26.498 17.5,26C 20.146,25.5026 22.8127,25.3359 25.5,25.5C 25.5,21.5 25.5,17.5 25.5,13.5 Z"/></g>
<g><path style="opacity:0.004" fill="#dcb188" d="M 72.5,14.5 C 73.4816,17.9619 73.815,21.6286 73.5,25.5C 77.1817,25.3347 80.8484,25.5014 84.5,26C 80.5138,26.4988 76.5138,26.6655 72.5,26.5C 72.5,22.5 72.5,18.5 72.5,14.5 Z"/></g>
<g><path style="opacity:0.008" fill="#00807f" d="M 14.5,27.5 C 14.8966,26.475 15.5632,26.3083 16.5,27C 15.9056,27.4643 15.2389,27.631 14.5,27.5 Z"/></g>
<g><path style="opacity:0.008" fill="#feff7f" d="M 85.5,26.5 C 86.8333,27.1667 86.8333,27.1667 85.5,26.5 Z"/></g>
<g><path style="opacity:0.004" fill="#ff7ffa" d="M 88.5,30.5 C 88.56,29.9569 88.8933,29.6236 89.5,29.5C 90.7733,30.2565 90.7733,30.9232 89.5,31.5C 89.5,30.8333 89.1667,30.5 88.5,30.5 Z"/></g>
<g><path style="opacity:0.992" fill="#3772a3" d="M 66.5,9.5 C 68.5273,10.8606 70.194,12.5273 71.5,14.5C 71.6664,23.1731 71.4998,31.8397 71,40.5C 69.8333,44.3333 67.3333,46.8333 63.5,48C 53.1082,48.1003 42.7749,48.767 32.5,50C 33.056,50.3826 33.3893,50.8826 33.5,51.5C 33.1667,51.5 32.8333,51.5 32.5,51.5C 29.5179,51.284 27.6845,52.9507 27,56.5C 26.5007,61.4889 26.3341,66.4889 26.5,71.5C 21.7697,71.7166 17.1031,71.3833 12.5,70.5C 12.1667,69.5 11.5,68.8333 10.5,68.5C 10.5,67.8333 10.1667,67.5 9.5,67.5C 9.06795,66.2905 8.40128,65.2905 7.5,64.5C 7.67158,63.5084 7.33825,62.8417 6.5,62.5C 5.20102,53.8404 5.20102,45.1737 6.5,36.5C 7.16667,36.5 7.5,36.1667 7.5,35.5C 8.40128,34.7095 9.06795,33.7095 9.5,32.5C 10.1667,32.5 10.5,32.1667 10.5,31.5C 12.5274,29.8196 14.8608,28.6529 17.5,28C 27.828,27.5002 38.1613,27.3335 48.5,27.5C 49.5676,28.4345 50.901,28.7678 52.5,28.5C 52.3505,27.448 52.5172,26.448 53,25.5C 57,21.5 61,17.5 65,13.5C 66.2284,12.0028 66.7284,10.6694 66.5,9.5 Z"/></g>
<g><path style="opacity:0.997" fill="#ffd040" d="M 88.5,30.5 C 89.1667,30.5 89.5,30.8333 89.5,31.5C 90.866,34.232 92.1993,36.8987 93.5,39.5C 93.7257,46.8761 93.3924,54.2094 92.5,61.5C 91.6618,61.8417 91.3284,62.5084 91.5,63.5C 90.6618,63.8417 90.3284,64.5084 90.5,65.5C 89.8333,65.5 89.5,65.8333 89.5,66.5C 88.8333,66.5 88.5,66.8333 88.5,67.5C 87.8333,67.5 87.5,67.8333 87.5,68.5C 86.8333,68.5 86.5,68.8333 86.5,69.5C 85.5084,69.3284 84.8417,69.6618 84.5,70.5C 83.209,70.2627 82.209,70.596 81.5,71.5C 75.8333,71.5 70.1667,71.5 64.5,71.5C 64.3893,70.8826 64.056,70.3826 63.5,70C 69.8333,69.6667 76.1667,69.3333 82.5,69C 72.172,68.5002 61.8387,68.3335 51.5,68.5C 54.5801,59.5853 60.5801,53.4186 69.5,50C 71.3731,49.0471 71.7065,47.8804 70.5,46.5C 72.3124,40.3482 72.9791,34.0148 72.5,27.5C 76.5138,27.3345 80.5138,27.5012 84.5,28C 85.9839,28.6622 87.3172,29.4955 88.5,30.5 Z"/></g>
<g><path style="opacity:0.008" fill="#187b7b" d="M 10.5,31.5 C 9.83333,31.5 9.5,31.8333 9.5,32.5C 8.95691,32.44 8.62358,32.1067 8.5,31.5C 9.2565,30.2267 9.92317,30.2267 10.5,31.5 Z"/></g>
<g><path style="opacity:0.004" fill="#363ded" d="M 7.5,35.5 C 6.83333,35.5 6.5,35.8333 6.5,36.5C 6.16667,36.5 5.83333,36.5 5.5,36.5C 6.03204,33.5404 6.69871,33.2071 7.5,35.5 Z"/></g>
<g><path style="opacity:0.004" fill="#ffd1f8" d="M 93.5,39.5 C 93.3505,38.448 93.5172,37.448 94,36.5C 94.7401,37.7494 94.5735,38.7494 93.5,39.5 Z"/></g>
<g><path style="opacity:0.004" fill="#5792ff" d="M 5.5,36.5 C 5.64945,37.552 5.48278,38.552 5,39.5C 4.25988,38.2506 4.42654,37.2506 5.5,36.5 Z"/></g>
<g><path style="opacity:0.004" fill="#2f3d62" d="M 3.5,40.5 C 4.65255,46.3188 4.81921,52.3188 4,58.5C 3.5,55.5 3,52.5 2.5,49.5C 3.16162,46.5318 3.49495,43.5318 3.5,40.5 Z"/></g>
<g><path style="opacity:0.004" fill="#ffe129" d="M 94.5,40.5 C 96.8411,45.9757 97.0078,51.6424 95,57.5C 94.5006,51.8431 94.3339,46.1764 94.5,40.5 Z"/></g>
<g><path style="opacity:0.984" fill="#fed749" d="M 70.5,46.5 C 71.7065,47.8804 71.3731,49.0471 69.5,50C 60.5801,53.4186 54.5801,59.5853 51.5,68.5C 61.8387,68.3335 72.172,68.5002 82.5,69C 76.1667,69.3333 69.8333,69.6667 63.5,70C 64.056,70.3826 64.3893,70.8826 64.5,71.5C 59.6367,71.1805 54.97,71.5139 50.5,72.5C 49.7784,72.0825 49.2784,71.4158 49,70.5C 43.3543,74.6552 38.1876,79.9885 33.5,86.5C 36.1277,89.5462 35.4611,90.2129 31.5,88.5C 29.8267,87.657 28.66,86.3237 28,84.5C 27.3333,75.5 27.3333,66.5 28,57.5C 29.332,55.34 30.832,53.34 32.5,51.5C 32.8333,51.5 33.1667,51.5 33.5,51.5C 35.0858,50.8519 36.7525,50.3519 38.5,50C 47.8333,49.6667 57.1667,49.3333 66.5,49C 67.9839,48.3378 69.3172,47.5045 70.5,46.5 Z"/></g>
<g><path style="opacity:0.004" fill="#25535c" d="M 6.5,62.5 C 6.32842,63.4916 6.66175,64.1583 7.5,64.5C 7.60682,66.3786 7.10682,66.7119 6,65.5C 4.81288,63.9556 4.47954,62.2889 5,60.5C 5.27842,61.4158 5.77842,62.0825 6.5,62.5 Z"/></g>
<g><path style="opacity:0.012" fill="#ffaa23" d="M 91.5,65.5 C 91.5,64.8333 91.5,64.1667 91.5,63.5C 92.3382,63.1583 92.6716,62.4916 92.5,61.5C 93.2216,61.0825 93.7216,60.4158 94,59.5C 94.5415,62.0825 93.7082,64.0825 91.5,65.5 Z"/></g>
<g><path style="opacity:0.008" fill="#fe8000" d="M 90.5,65.5 C 90.8333,65.5 91.1667,65.5 91.5,65.5C 91.3147,66.1701 90.9813,66.1701 90.5,65.5 Z"/></g>
<g><path style="opacity:0.008" fill="#fe8000" d="M 89.5,66.5 C 89.8333,66.5 90.1667,66.5 90.5,66.5C 90.3147,67.1701 89.9813,67.1701 89.5,66.5 Z"/></g>
<g><path style="opacity:0.008" fill="#fe8000" d="M 88.5,67.5 C 88.8333,67.5 89.1667,67.5 89.5,67.5C 89.3147,68.1701 88.9813,68.1701 88.5,67.5 Z"/></g>
<g><path style="opacity:0.004" fill="#1a3b3b" d="M 9.5,67.5 C 10.1667,67.5 10.5,67.8333 10.5,68.5C 10.44,69.0431 10.1067,69.3764 9.5,69.5C 8.22671,68.7435 8.22671,68.0768 9.5,67.5 Z"/></g>
<g><path style="opacity:0.004" fill="#feff00" d="M 87.5,68.5 C 87.8333,68.5 88.1667,68.5 88.5,68.5C 88.3147,69.1701 87.9813,69.1701 87.5,68.5 Z"/></g>
<g><path style="opacity:0.008" fill="#fe8000" d="M 86.5,69.5 C 86.8333,69.5 87.1667,69.5 87.5,69.5C 87.3147,70.1701 86.9813,70.1701 86.5,69.5 Z"/></g>
<g><path style="opacity:0.008" fill="#8080ff" d="M 12.5,70.5 C 12.5,70.8333 12.5,71.1667 12.5,71.5C 11.8299,71.0187 11.8299,70.6853 12.5,70.5 Z"/></g>
<g><path style="opacity:0.004" fill="#ffe333" d="M 84.5,71.5 C 84.5,71.1667 84.5,70.8333 84.5,70.5C 85.1667,70.5 85.8333,70.5 86.5,70.5C 86.1583,71.3382 85.4916,71.6716 84.5,71.5 Z"/></g>
<g><path style="opacity:0.008" fill="#00807f" d="M 12.5,71.5 C 13.8333,72.1667 13.8333,72.1667 12.5,71.5 Z"/></g>
<g><path style="opacity:0.006" fill="#ffe0fe" d="M 81.5,71.5 C 82.5,71.5 83.5,71.5 84.5,71.5C 83.5,72.8333 82.5,72.8333 81.5,71.5 Z"/></g>
<g><path style="opacity:0.004" fill="#e1b786" d="M 14.5,73.5 C 18.2984,72.5166 22.2984,72.1832 26.5,72.5C 26.6655,76.5138 26.4988,80.5138 26,84.5C 25.5014,80.8484 25.3347,77.1817 25.5,73.5C 21.8333,73.5 18.1667,73.5 14.5,73.5 Z"/></g>
<g><path style="opacity:0.856" fill="#ffce3d" d="M 50.5,72.5 C 57.5,72.5 64.5,72.5 71.5,72.5C 71.5,76.8333 71.5,81.1667 71.5,85.5C 70.6618,85.8417 70.3284,86.5084 70.5,87.5C 69.8333,87.5 69.5,87.8333 69.5,88.5C 68.8333,88.5 68.5,88.8333 68.5,89.5C 67.8333,89.5 67.5,89.8333 67.5,90.5C 66.5084,90.3284 65.8417,90.6618 65.5,91.5C 64.5084,91.3284 63.8417,91.6618 63.5,92.5C 61.901,92.2322 60.5676,92.5655 59.5,93.5C 51.7989,93.6911 44.1322,93.3577 36.5,92.5C 36.1583,91.6618 35.4916,91.3284 34.5,91.5C 33.3065,90.7281 32.3065,89.7281 31.5,88.5C 35.4611,90.2129 36.1277,89.5462 33.5,86.5C 38.1876,79.9885 43.3543,74.6552 49,70.5C 49.2784,71.4158 49.7784,72.0825 50.5,72.5 Z M 59.5,80.5 C 59.9169,79.8761 60.5836,79.5427 61.5,79.5C 62.7133,79.7472 63.38,80.4138 63.5,81.5C 63.1667,81.5 62.8333,81.5 62.5,81.5C 61.791,80.596 60.791,80.2627 59.5,80.5 Z M 62.5,81.5 C 62.5,82.1667 62.5,82.8333 62.5,83.5C 59.8333,82.8333 59.8333,82.1667 62.5,81.5 Z M 62.5,83.5 C 62.8333,83.5 63.1667,83.5 63.5,83.5C 63.38,84.5862 62.7133,85.2528 61.5,85.5C 60.5836,85.4573 59.9169,85.1239 59.5,84.5C 60.791,84.7373 61.791,84.404 62.5,83.5 Z"/></g>
<g><path style="opacity:0.004" fill="#ffcff8" d="M 72.5,85.5 C 72.5,81.1667 72.5,76.8333 72.5,72.5C 75.1873,72.3359 77.854,72.5026 80.5,73C 78.1902,73.4966 75.8568,73.6633 73.5,73.5C 73.8168,77.7016 73.4834,81.7016 72.5,85.5 Z"/></g>
<g><path style="opacity:0.008" fill="#ffe262" d="M 59.5,80.5 C 60.791,80.2627 61.791,80.596 62.5,81.5C 59.8333,82.1667 59.8333,82.8333 62.5,83.5C 61.791,84.404 60.791,84.7373 59.5,84.5C 59.5,83.1667 59.5,81.8333 59.5,80.5 Z"/></g>
<g><path style="opacity:0.008" fill="#feff7f" d="M 26.5,85.5 C 27.8333,86.1667 27.8333,86.1667 26.5,85.5 Z"/></g>
<g><path style="opacity:0.008" fill="#ffacfe" d="M 71.5,85.5 C 71.8333,85.5 72.1667,85.5 72.5,85.5C 72.6716,86.4916 72.3382,87.1583 71.5,87.5C 71.5,86.8333 71.5,86.1667 71.5,85.5 Z"/></g>
<g><path style="opacity:0.008" fill="#feff00" d="M 70.5,87.5 C 70.8333,87.5 71.1667,87.5 71.5,87.5C 71.3147,88.1701 70.9813,88.1701 70.5,87.5 Z"/></g>
<g><path style="opacity:0.008" fill="#fe8000" d="M 69.5,88.5 C 69.8333,88.5 70.1667,88.5 70.5,88.5C 70.3147,89.1701 69.9813,89.1701 69.5,88.5 Z"/></g>
<g><path style="opacity:0.008" fill="#fe8000" d="M 68.5,89.5 C 68.8333,89.5 69.1667,89.5 69.5,89.5C 69.3147,90.1701 68.9813,90.1701 68.5,89.5 Z"/></g>
<g><path style="opacity:0.004" fill="#feff00" d="M 67.5,90.5 C 67.8333,90.5 68.1667,90.5 68.5,90.5C 68.3147,91.1701 67.9813,91.1701 67.5,90.5 Z"/></g>
<g><path style="opacity:0.004" fill="#ffe333" d="M 65.5,92.5 C 65.5,92.1667 65.5,91.8333 65.5,91.5C 66.1667,91.5 66.8333,91.5 67.5,91.5C 67.1583,92.3382 66.4916,92.6716 65.5,92.5 Z"/></g>
<g><path style="opacity:0.008" fill="#ffe269" d="M 34.5,91.5 C 34.8417,92.3382 35.5084,92.6716 36.5,92.5C 36.5,92.8333 36.5,93.1667 36.5,93.5C 34.8967,93.6882 33.5634,93.1882 32.5,92C 33.0944,91.5357 33.7611,91.369 34.5,91.5 Z"/></g>
<g><path style="opacity:0.008" fill="#fffe44" d="M 63.5,93.5 C 63.5,93.1667 63.5,92.8333 63.5,92.5C 64.1667,92.5 64.8333,92.5 65.5,92.5C 65.1583,93.3382 64.4916,93.6716 63.5,93.5 Z"/></g>
<g><path style="opacity:0.004" fill="#feff00" d="M 36.5,93.5 C 37.552,93.3505 38.552,93.5172 39.5,94C 38.2506,94.7401 37.2506,94.5735 36.5,93.5 Z"/></g>
<g><path style="opacity:0.004" fill="#ffdaf9" d="M 59.5,93.5 C 60.8333,93.5 62.1667,93.5 63.5,93.5C 62.1667,94.8333 60.8333,94.8333 59.5,93.5 Z"/></g>
<g><path style="opacity:0.008" fill="#ffea55" d="M 41.5,95.5 C 46.9846,94.3483 52.6513,94.1816 58.5,95C 52.8431,95.4994 47.1764,95.6661 41.5,95.5 Z"/></g>
</svg>
