<?xml version="1.0" encoding="UTF-8"?>
<!DOCTYPE svg PUBLIC "-//W3C//DTD SVG 1.1//EN" "http://www.w3.org/Graphics/SVG/1.1/DTD/svg11.dtd">
<svg xmlns="http://www.w3.org/2000/svg" version="1.1" width="100px" height="100px" style="shape-rendering:geometricPrecision; text-rendering:geometricPrecision; image-rendering:optimizeQuality; fill-rule:evenodd; clip-rule:evenodd" xmlns:xlink="http://www.w3.org/1999/xlink">
<g><path style="opacity:1" fill="#aeadb2" d="M 70.5,4.5 C 81.6078,7.94074 89.6078,14.9407 94.5,25.5C 93.1751,24.0474 92.3418,24.3808 92,26.5C 91.7167,23.2577 90.8834,22.9244 89.5,25.5C 92.9453,28.3224 93.9453,31.6557 92.5,35.5C 89.8871,29.887 85.8871,25.5537 80.5,22.5C 69.4648,16.8294 57.7981,15.1628 45.5,17.5C 46.305,15.7872 47.305,14.1206 48.5,12.5C 53.0895,11.2034 57.4228,9.37003 61.5,7C 58.7215,6.85076 58.2215,6.01743 60,4.5C 63.4296,6.73129 66.9296,6.73129 70.5,4.5 Z"/></g>
<g><path style="opacity:1" fill="#bfbfc3" d="M 45.5,0.5 C 44.7375,1.26791 43.7375,1.76791 42.5,2C 46.8333,2.33333 51.1667,2.66667 55.5,3C 53.8333,3.33333 52.1667,3.66667 50.5,4C 51.1667,4.33333 51.8333,4.66667 52.5,5C 47.6241,7.73639 42.6241,8.06972 37.5,6C 39.5951,5.44437 39.7618,4.94437 38,4.5C 36.5,5 35,5.5 33.5,6C 34.5,6.33333 35.5,6.66667 36.5,7C 33.4254,12.1023 29.4254,16.2689 24.5,19.5C 23.5713,20.6888 23.238,22.0222 23.5,23.5C 22.0222,23.238 20.6888,23.5713 19.5,24.5C 18.8333,25.8333 17.8333,26.8333 16.5,27.5C 15.5713,28.6888 15.238,30.0222 15.5,31.5C 12.5096,32.7588 9.50956,34.0921 6.5,35.5C 6.00126,39.4899 5.50126,43.4899 5,47.5C 4.78221,44.5738 4.28221,41.7405 3.5,39C 5.36319,37.5822 5.86319,35.7489 5,33.5C 3.81471,35.3772 2.81471,37.3772 2,39.5C 1.76791,38.2625 1.26791,37.2625 0.5,36.5C 3.92635,20.5739 13.2597,9.74057 28.5,4C 33.9753,1.87165 39.642,0.704978 45.5,0.5 Z"/></g>
<g><path style="opacity:1" fill="#fafbfa" d="M 80.5,22.5 C 80.0825,23.2216 79.4158,23.7216 78.5,24C 67.6434,24.7768 56.81,24.6102 46,23.5C 43.3345,24.0826 40.8345,25.0826 38.5,26.5C 39.5309,38.9433 39.6976,51.61 39,64.5C 38.6667,65.1667 38.3333,65.8333 38,66.5C 37.1627,64.9926 35.9961,64.4926 34.5,65C 33.1667,66 33.1667,67 34.5,68C 33.9056,68.4643 33.2389,68.631 32.5,68.5C 25.4047,64.0689 21.0714,57.7356 19.5,49.5C 18.5921,42.8533 20.0921,36.8533 24,31.5C 29.8605,24.6639 37.0271,19.9972 45.5,17.5C 57.7981,15.1628 69.4648,16.8294 80.5,22.5 Z"/></g>
<g><path style="opacity:1" fill="#b8b9be" d="M 45.5,0.5 C 50.5111,0.334072 55.5111,0.500738 60.5,1C 64.2451,1.30215 67.5784,2.46882 70.5,4.5C 66.9296,6.73129 63.4296,6.73129 60,4.5C 58.2215,6.01743 58.7215,6.85076 61.5,7C 57.4228,9.37003 53.0895,11.2034 48.5,12.5C 47.305,14.1206 46.305,15.7872 45.5,17.5C 37.0271,19.9972 29.8605,24.6639 24,31.5C 20.0921,36.8533 18.5921,42.8533 19.5,49.5C 18.3707,48.5305 17.3707,47.3638 16.5,46C 17.4589,43.8801 17.6256,41.7135 17,39.5C 16.0994,45.6722 12.5994,48.3389 6.5,47.5C 6.5751,50.2062 6.90843,52.8728 7.5,55.5C 6.32496,55.719 5.32496,55.3857 4.5,54.5C 5.82334,49.9115 5.32334,49.5782 3,53.5C 2.22083,50.9028 1.72083,50.9028 1.5,53.5C 0.833333,51.8333 0.166667,50.1667 -0.5,48.5C -0.5,44.8333 -0.5,41.1667 -0.5,37.5C 0.166667,37.5 0.5,37.1667 0.5,36.5C 1.26791,37.2625 1.76791,38.2625 2,39.5C 2.81471,37.3772 3.81471,35.3772 5,33.5C 5.86319,35.7489 5.36319,37.5822 3.5,39C 4.28221,41.7405 4.78221,44.5738 5,47.5C 5.50126,43.4899 6.00126,39.4899 6.5,35.5C 9.50956,34.0921 12.5096,32.7588 15.5,31.5C 15.238,30.0222 15.5713,28.6888 16.5,27.5C 17.8333,26.8333 18.8333,25.8333 19.5,24.5C 20.6888,23.5713 22.0222,23.238 23.5,23.5C 23.238,22.0222 23.5713,20.6888 24.5,19.5C 29.4254,16.2689 33.4254,12.1023 36.5,7C 35.5,6.66667 34.5,6.33333 33.5,6C 35,5.5 36.5,5 38,4.5C 39.7618,4.94437 39.5951,5.44437 37.5,6C 42.6241,8.06972 47.6241,7.73639 52.5,5C 51.8333,4.66667 51.1667,4.33333 50.5,4C 52.1667,3.66667 53.8333,3.33333 55.5,3C 51.1667,2.66667 46.8333,2.33333 42.5,2C 43.7375,1.76791 44.7375,1.26791 45.5,0.5 Z"/></g>
<g><path style="opacity:1" fill="#e3f1f6" d="M 80.5,22.5 C 85.8871,25.5537 89.8871,29.887 92.5,35.5C 95.0417,46.3505 93.2084,56.3505 87,65.5C 85.2258,66.965 83.3925,68.2983 81.5,69.5C 80.8333,69.5 80.1667,69.5 79.5,69.5C 78.9423,68.2101 77.9423,67.3768 76.5,67C 79.1867,65.9514 81.52,64.4514 83.5,62.5C 85.7957,60.5994 87.629,58.2661 89,55.5C 91.8758,47.2312 90.8758,39.5645 86,32.5C 84.3621,30.2663 82.1955,28.933 79.5,28.5C 79.1583,27.6618 78.4916,27.3284 77.5,27.5C 65.5,27.5 53.5,27.5 41.5,27.5C 40.5039,42.324 40.1706,57.324 40.5,72.5C 37.8333,71.5 35.1667,70.5 32.5,69.5C 32.5,69.1667 32.5,68.8333 32.5,68.5C 33.2389,68.631 33.9056,68.4643 34.5,68C 33.1667,67 33.1667,66 34.5,65C 35.9961,64.4926 37.1627,64.9926 38,66.5C 38.3333,65.8333 38.6667,65.1667 39,64.5C 39.6976,51.61 39.5309,38.9433 38.5,26.5C 40.8345,25.0826 43.3345,24.0826 46,23.5C 56.81,24.6102 67.6434,24.7768 78.5,24C 79.4158,23.7216 80.0825,23.2216 80.5,22.5 Z"/></g>
<g><path style="opacity:1" fill="#3167a9" d="M 71.5,41.5 C 71.5,42.1667 71.5,42.8333 71.5,43.5C 66.9296,42.559 62.263,42.2256 57.5,42.5C 57.5,46.5 57.5,50.5 57.5,54.5C 61.8461,54.6657 66.1794,54.499 70.5,54C 72.2785,51.8646 72.9452,49.3646 72.5,46.5C 73.6378,49.3035 73.8045,52.3035 73,55.5C 72.1841,56.8228 71.0174,57.4894 69.5,57.5C 64.8507,56.935 60.184,56.435 55.5,56C 54.8729,54.2622 54.5396,52.4289 54.5,50.5C 54.7909,46.5947 55.4576,43.0947 56.5,40C 60.812,37.9151 65.4786,37.4151 70.5,38.5C 70.2627,39.791 70.596,40.791 71.5,41.5 Z"/></g>
<g><path style="opacity:1" fill="#99979e" d="M 94.5,25.5 C 96.7719,29.2622 98.4385,33.2622 99.5,37.5C 99.5,40.8333 99.5,44.1667 99.5,47.5C 97.3807,58.0695 92.3807,67.0695 84.5,74.5C 83.2632,73.0351 82.2632,71.3684 81.5,69.5C 83.3925,68.2983 85.2258,66.965 87,65.5C 93.2084,56.3505 95.0417,46.3505 92.5,35.5C 93.9453,31.6557 92.9453,28.3224 89.5,25.5C 90.8834,22.9244 91.7167,23.2577 92,26.5C 92.3418,24.3808 93.1751,24.0474 94.5,25.5 Z"/></g>
<g><path style="opacity:1" fill="#184899" d="M 41.5,27.5 C 53.5,27.5 65.5,27.5 77.5,27.5C 66.012,28.4949 54.3453,28.8283 42.5,28.5C 42.5,40.1667 42.5,51.8333 42.5,63.5C 42.1667,63.5 41.8333,63.5 41.5,63.5C 41.5,51.5 41.5,39.5 41.5,27.5 Z"/></g>
<g><path style="opacity:1" fill="#e2f6fc" d="M 71.5,43.5 C 72.1098,44.391 72.4431,45.391 72.5,46.5C 72.9452,49.3646 72.2785,51.8646 70.5,54C 66.1794,54.499 61.8461,54.6657 57.5,54.5C 57.5,50.5 57.5,46.5 57.5,42.5C 62.263,42.2256 66.9296,42.559 71.5,43.5 Z"/></g>
<g><path style="opacity:1" fill="#f8f9f3" d="M 60.5,43.5 C 63.3463,44.0946 66.3463,44.0946 69.5,43.5C 71.367,51.4765 68.367,54.8098 60.5,53.5C 60.0181,50.0542 60.0181,46.7209 60.5,43.5 Z"/></g>
<g><path style="opacity:1" fill="#216abf" d="M 77.5,27.5 C 78.4916,27.3284 79.1583,27.6618 79.5,28.5C 78.0484,29.3019 76.3817,29.8019 74.5,30C 73.269,31.1827 73.269,32.3493 74.5,33.5C 76.6179,32.0541 78.9512,31.3874 81.5,31.5C 80.3252,35.1834 80.3252,38.85 81.5,42.5C 80.7784,42.0825 80.2784,41.4158 80,40.5C 79.8236,43.8818 79.3236,47.2152 78.5,50.5C 76.2033,48.9423 75.87,46.9423 77.5,44.5C 77.1822,43.3527 76.5156,42.5194 75.5,42C 76.6231,38.9443 75.9565,38.7777 73.5,41.5C 74.3256,42.451 74.4922,43.451 74,44.5C 73.1482,43.4293 72.3149,42.4293 71.5,41.5C 70.596,40.791 70.2627,39.791 70.5,38.5C 65.4786,37.4151 60.812,37.9151 56.5,40C 55.4576,43.0947 54.7909,46.5947 54.5,50.5C 54.5396,52.4289 54.8729,54.2622 55.5,56C 60.184,56.435 64.8507,56.935 69.5,57.5C 70.0906,58.1515 70.7573,58.8182 71.5,59.5C 66.2079,60.4948 60.8746,60.8282 55.5,60.5C 52.5073,61.9154 50.674,64.2487 50,67.5C 49.8321,76.8511 49.3321,86.1845 48.5,95.5C 46.8273,97.0863 44.8273,97.7529 42.5,97.5C 42.5,86.1667 42.5,74.8333 42.5,63.5C 42.5,51.8333 42.5,40.1667 42.5,28.5C 54.3453,28.8283 66.012,28.4949 77.5,27.5 Z"/></g>
<g><path style="opacity:1" fill="#afafb4" d="M 19.5,49.5 C 21.0714,57.7356 25.4047,64.0689 32.5,68.5C 32.5,68.8333 32.5,69.1667 32.5,69.5C 31.8485,70.0906 31.1818,70.7573 30.5,71.5C 30.0894,70.7376 29.9227,69.7376 30,68.5C 29.586,68.9574 29.086,69.2907 28.5,69.5C 24.9768,65.5598 21.9768,66.0598 19.5,71C 20.1667,71.3333 20.8333,71.6667 21.5,72C 18.9644,72.1862 16.631,72.6862 14.5,73.5C 7.77112,68.4289 3.43779,61.7622 1.5,53.5C 1.72083,50.9028 2.22083,50.9028 3,53.5C 5.32334,49.5782 5.82334,49.9115 4.5,54.5C 5.32496,55.3857 6.32496,55.719 7.5,55.5C 6.90843,52.8728 6.5751,50.2062 6.5,47.5C 12.5994,48.3389 16.0994,45.6722 17,39.5C 17.6256,41.7135 17.4589,43.8801 16.5,46C 17.3707,47.3638 18.3707,48.5305 19.5,49.5 Z"/></g>
<g><path style="opacity:1" fill="#2663a8" d="M 55.5,60.5 C 59.3123,61.3238 63.3123,61.8238 67.5,62C 65.7806,63.0569 63.9472,63.8903 62,64.5C 61.5065,66.1341 61.3398,67.8008 61.5,69.5C 67.0203,69.1507 69.3536,71.8174 68.5,77.5C 67.5,77.1667 66.8333,76.5 66.5,75.5C 65.1313,71.0835 62.1313,69.4168 57.5,70.5C 57.5,72.1667 57.5,73.8333 57.5,75.5C 57.5,79.1667 57.5,82.8333 57.5,86.5C 57.8531,91.0815 57.8531,95.0815 57.5,98.5C 52.1667,98.5 46.8333,98.5 41.5,98.5C 41.5,86.8333 41.5,75.1667 41.5,63.5C 41.8333,63.5 42.1667,63.5 42.5,63.5C 42.5,74.8333 42.5,86.1667 42.5,97.5C 44.8273,97.7529 46.8273,97.0863 48.5,95.5C 49.3321,86.1845 49.8321,76.8511 50,67.5C 50.674,64.2487 52.5073,61.9154 55.5,60.5 Z"/></g>
<g><path style="opacity:1" fill="#dbf5f9" d="M 57.5,70.5 C 62.1313,69.4168 65.1313,71.0835 66.5,75.5C 63.5,75.5 60.5,75.5 57.5,75.5C 57.5,73.8333 57.5,72.1667 57.5,70.5 Z"/></g>
<g><path style="opacity:1" fill="#a2a2a8" d="M 32.5,69.5 C 35.1667,70.5 37.8333,71.5 40.5,72.5C 40.5,76.8333 40.5,81.1667 40.5,85.5C 30.6195,83.9908 21.9529,79.9908 14.5,73.5C 16.631,72.6862 18.9644,72.1862 21.5,72C 20.8333,71.6667 20.1667,71.3333 19.5,71C 21.9768,66.0598 24.9768,65.5598 28.5,69.5C 29.086,69.2907 29.586,68.9574 30,68.5C 29.9227,69.7376 30.0894,70.7376 30.5,71.5C 31.1818,70.7573 31.8485,70.0906 32.5,69.5 Z"/></g>
<g><path style="opacity:1" fill="#3165a8" d="M 79.5,28.5 C 82.1955,28.933 84.3621,30.2663 86,32.5C 90.8758,39.5645 91.8758,47.2312 89,55.5C 87.629,58.2661 85.7957,60.5994 83.5,62.5C 81.52,64.4514 79.1867,65.9514 76.5,67C 77.9423,67.3768 78.9423,68.2101 79.5,69.5C 82.4479,73.7331 84.6145,78.3998 86,83.5C 86.6708,84.2524 87.5041,84.5858 88.5,84.5C 91.267,88.3737 93.267,92.7071 94.5,97.5C 94.1583,98.3382 93.4916,98.6716 92.5,98.5C 91.0484,97.6981 89.3817,97.1981 87.5,97C 90.6515,92.0692 89.8182,87.9026 85,84.5C 83.9242,81.3516 82.5909,78.3516 81,75.5C 79.5587,74.13 77.892,73.13 76,72.5C 75.7822,69.5738 75.2822,66.7405 74.5,64C 76.1341,63.5065 77.8008,63.3398 79.5,63.5C 80.4661,56.5504 81.1327,49.5504 81.5,42.5C 80.3252,38.85 80.3252,35.1834 81.5,31.5C 78.9512,31.3874 76.6179,32.0541 74.5,33.5C 73.269,32.3493 73.269,31.1827 74.5,30C 76.3817,29.8019 78.0484,29.3019 79.5,28.5 Z"/></g>
<g><path style="opacity:1" fill="#2165b8" d="M 83.5,62.5 C 82.2521,61.6661 81.5854,60.3328 81.5,58.5C 84.2471,51.8415 85.9137,44.8415 86.5,37.5C 87.1924,38.0253 87.6924,38.6919 88,39.5C 88.7769,44.222 88.6103,48.8887 87.5,53.5C 86.3112,54.4287 84.9778,54.762 83.5,54.5C 83.5,57.1667 83.5,59.8333 83.5,62.5 Z"/></g>
<g><path style="opacity:1" fill="#3f6494" d="M 79.5,69.5 C 80.1667,69.5 80.8333,69.5 81.5,69.5C 82.2632,71.3684 83.2632,73.0351 84.5,74.5C 86.3908,77.6142 87.7241,80.9475 88.5,84.5C 87.5041,84.5858 86.6708,84.2524 86,83.5C 84.6145,78.3998 82.4479,73.7331 79.5,69.5 Z"/></g>
<g><path style="opacity:1" fill="#1e61b4" d="M 81.5,42.5 C 81.1327,49.5504 80.4661,56.5504 79.5,63.5C 77.8008,63.3398 76.1341,63.5065 74.5,64C 75.2822,66.7405 75.7822,69.5738 76,72.5C 77.892,73.13 79.5587,74.13 81,75.5C 82.5909,78.3516 83.9242,81.3516 85,84.5C 89.8182,87.9026 90.6515,92.0692 87.5,97C 89.3817,97.1981 91.0484,97.6981 92.5,98.5C 87.1667,98.5 81.8333,98.5 76.5,98.5C 77.2625,97.7321 78.2625,97.2321 79.5,97C 78.8016,96.0293 78.8016,94.8626 79.5,93.5C 79.3333,92.8333 79.1667,92.1667 79,91.5C 76.6531,95.5386 75.4865,95.0386 75.5,90C 76.1299,86.7713 76.6299,83.6046 77,80.5C 76.586,80.0426 76.086,79.7093 75.5,79.5C 74.5481,81.0453 74.2148,82.712 74.5,84.5C 73.1667,84.5 71.8333,84.5 70.5,84.5C 69.6618,84.1583 69.3284,83.4916 69.5,82.5C 69.3713,80.7839 69.038,79.1172 68.5,77.5C 69.3536,71.8174 67.0203,69.1507 61.5,69.5C 61.3398,67.8008 61.5065,66.1341 62,64.5C 63.9472,63.8903 65.7806,63.0569 67.5,62C 63.3123,61.8238 59.3123,61.3238 55.5,60.5C 60.8746,60.8282 66.2079,60.4948 71.5,59.5C 70.7573,58.8182 70.0906,58.1515 69.5,57.5C 71.0174,57.4894 72.1841,56.8228 73,55.5C 73.8045,52.3035 73.6378,49.3035 72.5,46.5C 72.4431,45.391 72.1098,44.391 71.5,43.5C 71.5,42.8333 71.5,42.1667 71.5,41.5C 72.3149,42.4293 73.1482,43.4293 74,44.5C 74.4922,43.451 74.3256,42.451 73.5,41.5C 75.9565,38.7777 76.6231,38.9443 75.5,42C 76.5156,42.5194 77.1822,43.3527 77.5,44.5C 75.87,46.9423 76.2033,48.9423 78.5,50.5C 79.3236,47.2152 79.8236,43.8818 80,40.5C 80.2784,41.4158 80.7784,42.0825 81.5,42.5 Z"/></g>
<g><path style="opacity:1" fill="#1e65b8" d="M 57.5,70.5 C 56.6706,78.6566 56.1706,86.9899 56,95.5C 55.0475,97.5922 53.7141,97.9255 52,96.5C 52.0884,85.492 52.5884,74.492 53.5,63.5C 54.8333,63.5 56.1667,63.5 57.5,63.5C 57.5,65.8333 57.5,68.1667 57.5,70.5 Z"/></g>
<g><path style="opacity:1" fill="#9295a1" d="M 57.5,75.5 C 60.5,75.5 63.5,75.5 66.5,75.5C 66.8333,76.5 67.5,77.1667 68.5,77.5C 69.038,79.1172 69.3713,80.7839 69.5,82.5C 65.5,83.8333 61.5,85.1667 57.5,86.5C 57.5,82.8333 57.5,79.1667 57.5,75.5 Z"/></g>
<g><path style="opacity:1" fill="#3066a8" d="M 76.5,98.5 C 73.9346,94.1565 71.9346,89.4898 70.5,84.5C 71.8333,84.5 73.1667,84.5 74.5,84.5C 74.2148,82.712 74.5481,81.0453 75.5,79.5C 76.086,79.7093 76.586,80.0426 77,80.5C 76.6299,83.6046 76.1299,86.7713 75.5,90C 75.4865,95.0386 76.6531,95.5386 79,91.5C 79.1667,92.1667 79.3333,92.8333 79.5,93.5C 78.8016,94.8626 78.8016,96.0293 79.5,97C 78.2625,97.2321 77.2625,97.7321 76.5,98.5 Z"/></g>
<g><path style="opacity:1" fill="#7ba3db" d="M 41.5,27.5 C 41.5,39.5 41.5,51.5 41.5,63.5C 41.5,75.1667 41.5,86.8333 41.5,98.5C 46.8333,98.5 52.1667,98.5 57.5,98.5C 57.5,98.8333 57.5,99.1667 57.5,99.5C 51.8333,99.5 46.1667,99.5 40.5,99.5C 40.5,94.8333 40.5,90.1667 40.5,85.5C 40.5,81.1667 40.5,76.8333 40.5,72.5C 40.1706,57.324 40.5039,42.324 41.5,27.5 Z"/></g>
<g><path style="opacity:1" fill="#81adee" d="M 94.5,97.5 C 95.3382,97.8417 95.6716,98.5084 95.5,99.5C 89.1667,99.5 82.8333,99.5 76.5,99.5C 76.5,99.1667 76.5,98.8333 76.5,98.5C 81.8333,98.5 87.1667,98.5 92.5,98.5C 93.4916,98.6716 94.1583,98.3382 94.5,97.5 Z"/></g>
</svg>
