<?xml version="1.0" standalone="no"?>
<!DOCTYPE svg PUBLIC "-//W3C//DTD SVG 1.0//EN" "http://www.w3.org/TR/2001/REC-SVG-20010904/DTD/svg10.dtd">
<svg xmlns="http://www.w3.org/2000/svg" xmlns:xlink="http://www.w3.org/1999/xlink" id="body_1" width="100" height="100">

<g transform="matrix(7.381889 0 0 7.381889 3.519959E-06 -0)">
	<g transform="matrix(1 0 0 1 38.119152 -397.84494)">
        <path d="M-37.690964 404.6831C -37.690964 401.30063 -34.948914 398.55856 -31.566422 398.55856L-31.566422 398.55856L-31.56641 398.55856C -28.183918 398.55856 -25.441868 401.30063 -25.441868 404.6831C -25.441868 408.06558 -28.183918 410.80765 -31.56641 410.80765L-31.56641 410.80765L-31.566422 410.80765C -34.948914 410.80765 -37.690964 408.06558 -37.690964 404.6831z" stroke="none" fill="#2980B9" fill-rule="nonzero" />
		<g transform="matrix(0.79095143 0 0 0.79095143 -6.227284 84.29354)">
            <path d="M-30.22906 409.13382L-31.965387 405.7273C -32.07196 405.742 -32.182205 405.753 -32.296116 405.7604C -32.406364 405.7674 -32.520283 405.7714 -32.63787 405.7714C -32.77384 405.7714 -32.913483 405.76538 -33.056793 405.75488C -33.196438 405.7439 -33.34159 405.7292 -33.492252 405.7108L-33.492252 405.7108L-33.492252 408.51096L-32.246506 408.90784L-32.246506 409.13385L-35.520725 409.13385L-35.520725 408.90784L-34.50649 408.51096L-34.50649 401.62628L-35.520725 401.2294L-35.520725 401.0034L-32.41738 401.0034C -31.939665 401.0034 -31.51523 401.0585 -31.144073 401.16876C -30.772928 401.27533 -30.460573 401.42786 -30.207008 401.62628C -29.949781 401.8247 -29.755018 402.06357 -29.62272 402.34286C -29.490437 402.61847 -29.42429 402.92532 -29.424284 403.2634C -29.42429 403.7595 -29.552906 404.20047 -29.810135 404.5863C -30.0637 404.96848 -30.440365 405.26062 -30.940126 405.46274L-30.940126 405.46274L-29.33609 408.59363L-28.525805 408.9078L-28.525805 409.13382L-30.22906 409.13382zM-32.25753 401.58218L-33.492252 401.58218L-33.492252 405.1265C -33.34159 405.1449 -33.20011 405.1596 -33.067818 405.1706C -32.931854 405.17758 -32.799564 405.18158 -32.670944 405.18158C -31.25249 405.18158 -30.543259 404.57156 -30.543253 403.35153C -30.543259 402.7599 -30.690248 402.31708 -30.984224 402.0231C -31.27821 401.72913 -31.702646 401.58215 -32.25753 401.58212" stroke="none" fill="#ECF0F1" fill-rule="nonzero" />
		</g>
	</g>
</g>
</svg>