<?xml version="1.0" standalone="no"?>
<!DOCTYPE svg PUBLIC "-//W3C//DTD SVG 1.0//EN" "http://www.w3.org/TR/2001/REC-SVG-20010904/DTD/svg10.dtd">
<svg xmlns="http://www.w3.org/2000/svg" xmlns:xlink="http://www.w3.org/1999/xlink" id="body_1" width="97" height="100">

<g transform="matrix(0.37890625 0 0 0.37890625 -0 0.17382532)">
	<g>
        <path d="M166.87233 131.23686L212.78111 51.96235L234.96558 131.23686L212.78111 210.49324L166.87233 131.23686zM144.49593 144.11052L190.41219 223.3733L110.44557 202.88657L52.67514 144.11052L144.49593 144.11052zM190.40152 39.078026L144.49593 118.35254L52.67514 118.35254L110.44557 59.573288L190.40152 39.078026zM255.94072 104.25891L227.93262 0.06035193L123.39281 27.985268L107.91818 55.192493L76.516785 54.96748L0 131.24432L76.516785 207.50304L76.51998 207.50304L107.907524 207.27057L123.40454 234.47778L227.93262 262.39844L255.94072 158.21907L240.03526 131.23686L255.94072 104.25891z" stroke="none" fill="#222C37" fill-rule="nonzero" />
	</g>
</g>
</svg>