<?xml version="1.0" encoding="UTF-8"?>
<!DOCTYPE svg PUBLIC "-//W3C//DTD SVG 1.1//EN" "http://www.w3.org/Graphics/SVG/1.1/DTD/svg11.dtd">
<svg xmlns="http://www.w3.org/2000/svg" version="1.1" width="100px" height="100px" style="shape-rendering:geometricPrecision; text-rendering:geometricPrecision; image-rendering:optimizeQuality; fill-rule:evenodd; clip-rule:evenodd" xmlns:xlink="http://www.w3.org/1999/xlink">
<g><path style="opacity:0.024" fill="#2ca3ed" d="M 74.5,6.5 C 75.8488,5.2035 77.1821,5.37017 78.5,7C 77.9056,7.46434 77.2389,7.63101 76.5,7.5C 76.1583,6.66175 75.4916,6.32842 74.5,6.5 Z"/></g>
<g><path style="opacity:0.984" fill="#0065a9" d="M 67.5,6.5 C 69.0174,6.51056 70.1841,7.17723 71,8.5C 71.7981,16.246 71.6314,23.9127 70.5,31.5C 69.2905,31.9321 68.2905,32.5987 67.5,33.5C 66.8333,33.5 66.5,33.8333 66.5,34.5C 65.2905,34.9321 64.2905,35.5987 63.5,36.5C 62.8333,36.5 62.5,36.8333 62.5,37.5C 56.86,41.1467 51.5266,45.1467 46.5,49.5C 40.9586,46.5635 35.9586,42.8969 31.5,38.5C 31.5,38.1667 31.5,37.8333 31.5,37.5C 32.1667,37.5 32.5,37.1667 32.5,36.5C 34.4044,36.2624 35.7377,35.2624 36.5,33.5C 37.1667,33.5 37.5,33.1667 37.5,32.5C 38.1667,32.5 38.5,32.1667 38.5,31.5C 39.1667,31.5 39.5,31.1667 39.5,30.5C 42.5256,27.8046 45.5256,25.1379 48.5,22.5C 49.1667,22.5 49.5,22.1667 49.5,21.5C 50.1667,21.5 50.5,21.1667 50.5,20.5C 53.5256,17.8046 56.5256,15.1379 59.5,12.5C 60.1667,12.5 60.5,12.1667 60.5,11.5C 61.1667,11.5 61.5,11.1667 61.5,10.5C 63.2459,8.74844 65.2459,7.41511 67.5,6.5 Z"/></g>
<g><path style="opacity:0.016" fill="#1e9edf" d="M 80.5,9.5 C 81.5,8.16667 82.5,8.16667 83.5,9.5C 82.5,9.5 81.5,9.5 80.5,9.5 Z"/></g>
<g><path style="opacity:0.999" fill="#1f9cf0" d="M 67.5,6.5 C 69.688,5.37734 72.0213,5.37734 74.5,6.5C 74.8417,7.33825 75.5084,7.67158 76.5,7.5C 77.5137,8.67373 78.847,9.3404 80.5,9.5C 83.1598,11.4967 86.1598,12.9967 89.5,14C 91,14.8333 92.1667,16 93,17.5C 93.6667,38.8333 93.6667,60.1667 93,81.5C 92.1667,83 91,84.1667 89.5,85C 85.4933,86.3366 81.8267,88.1699 78.5,90.5C 77.5084,90.3284 76.8417,90.6618 76.5,91.5C 75.5084,91.3284 74.8417,91.6618 74.5,92.5C 73.5084,92.3284 72.8417,92.6618 72.5,93.5C 70.5853,93.7845 68.9187,93.4511 67.5,92.5C 69.0174,92.4894 70.1841,91.8228 71,90.5C 71.7981,82.754 71.6314,75.0873 70.5,67.5C 70.5,55.5 70.5,43.5 70.5,31.5C 71.6314,23.9127 71.7981,16.246 71,8.5C 70.1841,7.17723 69.0174,6.51056 67.5,6.5 Z"/></g>
<g><path style="opacity:0.008" fill="#238ef1" d="M 83.5,9.5 C 84.4916,9.32842 85.1583,9.66175 85.5,10.5C 84.5084,10.6716 83.8417,10.3382 83.5,9.5 Z"/></g>
<g><path style="opacity:0.024" fill="#2baaff" d="M 85.5,10.5 C 86.8333,11.1667 86.8333,11.1667 85.5,10.5 Z"/></g>
<g><path style="opacity:0.008" fill="#2580a8" d="M 61.5,10.5 C 60.8333,10.5 60.5,10.8333 60.5,11.5C 59.8333,11.5 59.5,11.8333 59.5,12.5C 57.4076,11.7145 57.7409,10.7145 60.5,9.5C 61.1067,9.62358 61.44,9.95691 61.5,10.5 Z"/></g>
<g><path style="opacity:0.004" fill="#3a4aee" d="M 87.5,12.5 C 87.8966,11.475 88.5632,11.3083 89.5,12C 88.9056,12.4643 88.2389,12.631 87.5,12.5 Z"/></g>
<g><path style="opacity:0.008" fill="#007fff" d="M 93.5,15.5 C 94.8333,16.1667 94.8333,16.1667 93.5,15.5 Z"/></g>
<g><path style="opacity:0.004" fill="#0ad1d4" d="M 94.5,17.5 C 95.2216,17.9175 95.7216,18.5842 96,19.5C 96.1667,29.5 96.3333,39.5 96.5,49.5C 96.6448,60.2605 96.1448,70.9272 95,81.5C 94.5,60.1693 94.3334,38.8359 94.5,17.5 Z"/></g>
<g><path style="opacity:0.02" fill="#1b62a0" d="M 50.5,20.5 C 49.8333,20.5 49.5,20.8333 49.5,21.5C 48.8333,21.5 48.5,21.8333 48.5,22.5C 46.4076,21.7145 46.7409,20.7145 49.5,19.5C 50.1067,19.6236 50.44,19.9569 50.5,20.5 Z"/></g>
<g><path style="opacity:0.997" fill="#007acc" d="M 29.5,36.5 C 29.5,37.1667 29.8333,37.5 30.5,37.5C 30.5,38.1667 30.8333,38.5 31.5,38.5C 35.9586,42.8969 40.9586,46.5635 46.5,49.5C 51.5266,53.8533 56.86,57.8533 62.5,61.5C 62.5,62.1667 62.8333,62.5 63.5,62.5C 64.2905,63.4013 65.2905,64.0679 66.5,64.5C 66.5,65.1667 66.8333,65.5 67.5,65.5C 68.2905,66.4013 69.2905,67.0679 70.5,67.5C 71.6314,75.0873 71.7981,82.754 71,90.5C 70.1841,91.8228 69.0174,92.4894 67.5,92.5C 65.2459,91.5849 63.2459,90.2516 61.5,88.5C 61.5,87.8333 61.1667,87.5 60.5,87.5C 60.5,86.8333 60.1667,86.5 59.5,86.5C 56.5256,83.8621 53.5256,81.1954 50.5,78.5C 50.5,77.8333 50.1667,77.5 49.5,77.5C 49.5,76.8333 49.1667,76.5 48.5,76.5C 45.5256,73.8621 42.5256,71.1954 39.5,68.5C 39.5,67.8333 39.1667,67.5 38.5,67.5C 38.5,66.8333 38.1667,66.5 37.5,66.5C 37.5,65.8333 37.1667,65.5 36.5,65.5C 35.027,63.6053 33.3603,61.9387 31.5,60.5C 27.4656,56.4645 23.1323,52.7978 18.5,49.5C 17.8333,48.1667 16.8333,47.1667 15.5,46.5C 15.5,45.8333 15.1667,45.5 14.5,45.5C 14.5,44.8333 14.1667,44.5 13.5,44.5C 9.92452,42.0918 7.25785,38.9251 5.5,35C 7.24906,29.5713 10.9157,26.9047 16.5,27C 20.5081,30.6649 24.8414,33.8316 29.5,36.5 Z"/></g>
<g><path style="opacity:0.02" fill="#2762a7" d="M 39.5,30.5 C 38.8333,30.5 38.5,30.8333 38.5,31.5C 37.8333,31.5 37.5,31.8333 37.5,32.5C 36.8333,32.5 36.5,32.8333 36.5,33.5C 35.7611,33.631 35.0944,33.4643 34.5,33C 35.5,32 36.5,31 37.5,30C 38.4368,29.3083 39.1034,29.475 39.5,30.5 Z"/></g>
<g><path style="opacity:0.004" fill="#152ae9" d="M 67.5,33.5 C 67.8333,33.5 68.1667,33.5 68.5,33.5C 68.5,34.1667 68.5,34.8333 68.5,35.5C 67.5084,35.6716 66.8417,35.3382 66.5,34.5C 67.1667,34.5 67.5,34.1667 67.5,33.5 Z"/></g>
<g><path style="opacity:0.004" fill="#28c3f6" d="M 3.5,32.5 C 4.61295,33.9464 4.77961,35.6131 4,37.5C 3.62576,36.5838 3.12576,35.7504 2.5,35C 3.25244,34.3292 3.58577,33.4959 3.5,32.5 Z"/></g>
<g><path style="opacity:0.004" fill="#1f49ce" d="M 29.5,36.5 C 30.5,35.1667 31.5,35.1667 32.5,36.5C 31.8333,36.5 31.5,36.8333 31.5,37.5C 31.1667,37.5 30.8333,37.5 30.5,37.5C 29.8333,37.5 29.5,37.1667 29.5,36.5 Z"/></g>
<g><path style="opacity:0.008" fill="#1d8ffd" d="M 68.5,33.5 C 69.1661,38.6559 69.4994,43.9892 69.5,49.5C 69.4949,55.2109 68.8282,60.5442 67.5,65.5C 66.8333,65.5 66.5,65.1667 66.5,64.5C 68.4334,55.0947 69.1001,45.428 68.5,35.5C 68.5,34.8333 68.5,34.1667 68.5,33.5 Z"/></g>
<g><path style="opacity:0.004" fill="#1a39e3" d="M 63.5,36.5 C 65.9752,36.7467 65.9752,37.4134 63.5,38.5C 62.8933,38.3764 62.56,38.0431 62.5,37.5C 63.1667,37.5 63.5,37.1667 63.5,36.5 Z"/></g>
<g><path style="opacity:0.016" fill="#2471c9" d="M 13.5,44.5 C 14.1667,44.5 14.5,44.8333 14.5,45.5C 15.1667,45.5 15.5,45.8333 15.5,46.5C 13.9301,47.5593 12.5968,47.0593 11.5,45C 12.0944,44.5357 12.7611,44.369 13.5,44.5 Z"/></g>
<g><path style="opacity:0.969" fill="#0065aa" d="M 18.5,49.5 C 23.1323,52.7978 27.4656,56.4645 31.5,60.5C 30.5,60.8333 29.8333,61.5 29.5,62.5C 26.1897,64.4821 23.1897,66.8154 20.5,69.5C 19.8333,69.5 19.5,69.8333 19.5,70.5C 18.5084,70.3284 17.8417,70.6618 17.5,71.5C 12.582,72.8009 8.74867,71.1342 6,66.5C 5.33333,64.8333 5.33333,63.1667 6,61.5C 8.39587,58.9334 10.8959,56.6 13.5,54.5C 14.1667,54.5 14.5,54.1667 14.5,53.5C 15.1667,53.5 15.5,53.1667 15.5,52.5C 16.8333,51.8333 17.8333,50.8333 18.5,49.5 Z"/></g>
<g><path style="opacity:0.016" fill="#175387" d="M 15.5,52.5 C 14.8333,52.5 14.5,52.8333 14.5,53.5C 13.8333,53.5 13.5,53.8333 13.5,54.5C 11.4076,53.7145 11.7409,52.7145 14.5,51.5C 15.1067,51.6236 15.44,51.9569 15.5,52.5 Z"/></g>
<g><path style="opacity:0.012" fill="#3a9dfa" d="M 62.5,61.5 C 63.4971,60.2875 64.4971,60.4542 65.5,62C 64.9056,62.4643 64.2389,62.631 63.5,62.5C 62.8333,62.5 62.5,62.1667 62.5,61.5 Z"/></g>
<g><path style="opacity:0.02" fill="#006599" d="M 29.5,62.5 C 30.8333,63.1667 30.8333,63.1667 29.5,62.5 Z"/></g>
<g><path style="opacity:0.004" fill="#2649d3" d="M 3.5,61.5 C 4.61295,62.9464 4.77961,64.6131 4,66.5C 3.62576,65.5838 3.12576,64.7504 2.5,64C 3.25244,63.3292 3.58577,62.4959 3.5,61.5 Z"/></g>
<g><path style="opacity:0.004" fill="#23a8d2" d="M 36.5,65.5 C 37.1667,65.5 37.5,65.8333 37.5,66.5C 38.1667,66.5 38.5,66.8333 38.5,67.5C 39.1667,67.5 39.5,67.8333 39.5,68.5C 39.1034,69.525 38.4368,69.6917 37.5,69C 36.5,68 35.5,67 34.5,66C 35.0944,65.5357 35.7611,65.369 36.5,65.5 Z"/></g>
<g><path style="opacity:0.027" fill="#006d92" d="M 20.5,69.5 C 21.8333,70.1667 21.8333,70.1667 20.5,69.5 Z"/></g>
<g><path style="opacity:0.024" fill="#0054aa" d="M 19.5,70.5 C 19.8333,70.5 20.1667,70.5 20.5,70.5C 20.3147,71.1701 19.9813,71.1701 19.5,70.5 Z"/></g>
<g><path style="opacity:0.012" fill="#0054aa" d="M 17.5,71.5 C 18.1667,71.5 18.8333,71.5 19.5,71.5C 18.8333,72.8333 18.1667,72.8333 17.5,71.5 Z"/></g>
<g><path style="opacity:0.008" fill="#2375c9" d="M 48.5,76.5 C 49.1667,76.5 49.5,76.8333 49.5,77.5C 50.1667,77.5 50.5,77.8333 50.5,78.5C 48.9301,79.5593 47.5968,79.0593 46.5,77C 47.0944,76.5357 47.7611,76.369 48.5,76.5 Z"/></g>
<g><path style="opacity:0.008" fill="#007fff" d="M 93.5,82.5 C 94.8333,83.1667 94.8333,83.1667 93.5,82.5 Z"/></g>
<g><path style="opacity:0.008" fill="#279fdf" d="M 59.5,86.5 C 60.1667,86.5 60.5,86.8333 60.5,87.5C 61.1667,87.5 61.5,87.8333 61.5,88.5C 59.9301,89.5593 58.5968,89.0593 57.5,87C 58.0944,86.5357 58.7611,86.369 59.5,86.5 Z"/></g>
<g><path style="opacity:0.016" fill="#2280ff" d="M 78.5,91.5 C 78.5,91.1667 78.5,90.8333 78.5,90.5C 81.1667,90.8333 81.1667,91.1667 78.5,91.5 Z"/></g>
<g><path style="opacity:0.016" fill="#31b8f7" d="M 76.5,91.5 C 77.1667,91.5 77.8333,91.5 78.5,91.5C 77.713,93.1042 76.3797,93.7709 74.5,93.5C 74.5,93.1667 74.5,92.8333 74.5,92.5C 75.4916,92.6716 76.1583,92.3382 76.5,91.5 Z"/></g>
<g><path style="opacity:0.008" fill="#2994ff" d="M 72.5,94.5 C 72.5,94.1667 72.5,93.8333 72.5,93.5C 73.1667,93.5 73.8333,93.5 74.5,93.5C 74.1583,94.3382 73.4916,94.6716 72.5,94.5 Z"/></g>
<g><path style="opacity:0.024" fill="#2ca7e8" d="M 72.5,94.5 C 71.0536,95.6129 69.3869,95.7796 67.5,95C 69.1341,94.5065 70.8008,94.3398 72.5,94.5 Z"/></g>
</svg>
